<?xml version="1.0" encoding="UTF-8"?>
<svg id="Layer_2" data-name="Layer 2" xmlns="http://www.w3.org/2000/svg" xmlns:xlink="http://www.w3.org/1999/xlink" viewBox="0 0 529.83 445.48">
  <defs>
    <style>
      .cls-1 {
        fill: #fdfefe;
      }

      .cls-1, .cls-2, .cls-3, .cls-4, .cls-5, .cls-6, .cls-7, .cls-8, .cls-9 {
        stroke-width: 0px;
      }

      .cls-2 {
        fill: url(#linear-gradient);
      }

      .cls-3 {
        fill: #f26722;
      }

      .cls-4 {
        fill: url(#linear-gradient-5);
      }

      .cls-5 {
        fill: #fff;
      }

      .cls-6 {
        fill: url(#linear-gradient-2);
      }

      .cls-7 {
        fill: url(#linear-gradient-3);
      }

      .cls-8 {
        fill: #0f1332;
      }

      .cls-9 {
        fill: url(#linear-gradient-4);
      }
    </style>
    <linearGradient id="linear-gradient" x1="349.95" y1="76.15" x2="415.92" y2="76.15" gradientUnits="userSpaceOnUse">
      <stop offset="0" stop-color="#47c1bc"/>
      <stop offset="1" stop-color="#47c1bc"/>
    </linearGradient>
    <linearGradient id="linear-gradient-2" x1="234.48" y1="74" x2="300.02" y2="74" xlink:href="#linear-gradient"/>
    <linearGradient id="linear-gradient-3" x1="281.1" y1="117.3" x2="420.99" y2="117.3" xlink:href="#linear-gradient"/>
    <linearGradient id="linear-gradient-4" x1="325.83" y1="307.87" x2="414.32" y2="307.87" xlink:href="#linear-gradient"/>
    <linearGradient id="linear-gradient-5" x1="429.59" y1="203.38" x2="441.57" y2="203.38" xlink:href="#linear-gradient"/>
  </defs>
  <g id="Layer_1-2" data-name="Layer 1">
    <path class="cls-8" d="M134.37,161.37c-27.74.05-55.47.14-83.21.14-7.49,0-11.88-3.89-11.46-9.77.3-4.22,3.39-7.68,7.72-8.43,1.84-.32,3.73-.41,5.6-.43,61.72-.52,123.44-.23,185.17.07,1.38,0,2.76.16,3.77-1.11,7.27-9.14,16.11-16.54,25.98-22.77-.07-.36-.13-.72-.2-1.07-6.78,0-13.57,0-20.35,0-54.48-.04-108.95-.07-163.43-.12-1.87,0-3.77.08-5.61-.17-4.64-.64-8.14-4.6-8.08-8.91.05-4.43,3.43-8.29,8.03-8.96,1.97-.29,3.98-.36,5.98-.36,42.86-.02,85.71-.02,128.57-.03,7.32,0,7.12.04,6.05-7.12-4.69-31.28,17.77-58.95,48.09-60.48,2.58-.13,4.07-.87,5.2-3.21,2.45-5.05,5.1-9.98,8.59-14.44,6.16-7.89,13.97-13.03,24.04-13.54,14.71-.74,29.47-1.1,44.16.28,8.78.83,15.15,5.94,20.47,12.92,3.81,4.99,6.6,10.49,9.72,15.83.88,1.51,1.92,1.93,3.56,2.06,8.6.7,16.51,3.29,23.88,7.99,26.54,16.96,29.83,47.83,18.53,70.35-1.01,2.01-2.08,4.07-3.52,5.78-1.43,1.7-.85,2.74.38,4.01,10.51,10.83,17.78,23.84,23.59,37.51,19.38,45.54,14.1,89.33-12.1,130.4-25.21,39.51-62.49,58.65-109.08,59.9-15.81.42-31.14-2.65-46.03-7.86-3.81-1.34-7.62-1.99-11.71-1.98-43.23.1-86.47.06-129.7.05-1.62,0-3.25-.02-4.87-.17-5.43-.51-9.25-4.58-9.05-9.57.2-4.98,3.91-8.56,9.44-8.63,12.37-.16,24.74-.13,37.11-.2,2.75-.01,5.49-.11,8.23-.16,3.49.08,6.98.24,10.47.25,27.73.03,55.46.02,83.2.03,8.04,0,16.08,0,24.47,0-13.92-3.76-26.11-10.2-36.72-19.13-5.45-4.59-10.58-8.05-17.95-6.64-1.2.23-2.49.02-3.74.02-19.1.03-38.21.06-57.31.09-4.3-1.15-8.68-.42-13.02-.51-5.98-.13-11.97-.04-17.95-.15-6.1-.11-9.71-2.58-10.84-7.22-1.12-4.6.95-8.42,6.24-11.48,1.54-.62,3.17-.53,4.8-.53,27.12,0,54.23,0,81.35-.02,1.08,0,2.5.48,3.14-.55.72-1.15-.63-1.99-1.18-2.9-3.38-5.56-6.71-11.19-8.67-17.4-1.21-3.83-3.27-4.73-7.05-4.71-33.49.15-66.97.09-100.46.09-34.08-.04-68.16-.09-102.24-.14-1.87,0-3.76.09-5.61-.11-4.66-.5-8.27-4.42-8.47-9.01-.2-4.73,2.58-8.23,7.53-9.22,1.69-.34,3.47-.33,5.21-.34,15.35-.05,30.71-.08,46.05-.11,7.73.04,15.47.11,23.21.11,43.47.02,86.93.02,130.4.03,4.87,0,5.01-.04,4.35-5-.63-4.72-.78-9.45-.73-14.2.06-5.82.03-5.82-5.98-5.83-43.84-.02-87.68-.03-131.52-.05-5.86,0-11.73-.06-17.59-.09-2.97-.59-5.97-.44-8.97-.44-13.74-.02-27.49,0-41.23-.08-3.98-.02-7.69-.92-9.79-4.85-3.26-6.09.22-12.91,7.11-13.75,2.59-.32,5.24-.26,7.86-.27,39.73-.08,79.46-.13,119.19-.2,20.98.06,41.95.14,62.93.17,11.36.01,22.73-.08,34.09-.08,2.17,0,4.35-.15,3.39,3.42-6.21,23.03-3.93,45.33,6.62,66.66,13.85,28,35.86,46.06,66.69,52.17,26.97,5.34,52.05-.41,74.18-16.56,17.84-13.02,29.41-30.77,35.63-52.1,5.26-18.06,3.98-35.76-1.44-53.42-.49-1.59-1.02-3.07-.44-4.7,3.38-7.31,6.87-14.59,10.13-21.97,1.55-3.5,1.25-3.79-2.61-3.16-5.46.89-10.36,3.37-15.34,5.61-2.88.66-3.58-1.8-4.7-3.44-11.86-17.33-27.5-29.82-47.34-36.83-43.93-15.52-88.73,5.87-107.75,38.08-.99,1.67-2.23,2.51-4.22,2.47-3.62-.07-7.24.04-10.86.04-33.33.05-66.66.09-99.98.13ZM325.69,16.59s0,.02,0,.04c-5.99,0-11.99-.07-17.98.03-2.84.05-5.65.29-8.32,1.58-6.44,3.1-8.86,9.37-12.24,14.93-1.13,1.87-.67,2.83,1.11,3.8,3.61,1.97,7.09,4.13,10.28,6.78,9,7.47,14.14,17.17,16.67,28.4.26,1.15.27,2.08,1.91,2.04,4.74-.11,9.49-.03,14.23-.06,1.45,0,2.43-.38,2.91-2.17,1.41-5.23,3.17-10.24,5.82-15.14,3.95-7.32,9-13.23,15.99-17.41,8.33-4.99,8.34-4.76,3.34-13.29-3.82-6.52-9.31-9.72-16.87-9.56-5.62.12-11.23.02-16.85.02ZM415.9,83.19c.13-2.65-.37-5.84-1.2-9-3.77-14.31-18.82-29.06-39.38-25.26-11.47,2.12-20.54,7.79-24.16,19.92-1.89,6.36-2.35,5.81,4.55,7.29,19.76,4.24,36.31,14.74,52.08,26.64,2.69,2.03,2.95,1.31,3.96-.9,2.63-5.75,4.24-11.71,4.14-18.69ZM264.89,48.75c-6.98.27-14.96,3.52-21.24,10.65-9.66,10.98-11.16,23.46-6.97,37.01.28.92.54,2.33,1.59,2.33,3.6-.02,7.46,1.79,10.72-1.26,1.08-1.01,2.12-2.13,3.38-2.86,14.22-8.26,29.01-15.22,45.21-18.59,2.84-.59,2.64-1.56,2.11-3.63-3.44-13.34-16.57-23.94-34.81-23.65ZM281.1,100.35c1.36.18,1.92.31,2.49.32,10.48.19,20.97.64,31.45-.04,9.1-.59,18.16-.77,27.21.75,26.7,4.48,48.68,17.18,65.88,38,2.7,3.27,5.21,5.5,9.59,4.72,1.05-.19,2.52.61,3.1-.49.66-1.24-.65-2.29-1.3-3.26-6.08-9.08-13.25-17.24-21.7-24.14-26.34-21.49-56.54-29.21-90.01-24.53-9.09,1.27-17.79,4.08-26.7,8.68ZM325.83,329.32c2.5,1.56,4.71,1.78,6.97,1.76,10.33-.11,20.3-2.26,29.93-5.79,19.26-7.05,35.88-17.95,48.54-34.37,1.3-1.68,2.54-3.38,3.04-6.25-1.22.94-1.85,1.34-2.38,1.85-1.53,1.47-3.05,2.95-4.51,4.49-19.5,20.58-43.78,31.58-71.47,35.93-3.21.5-6.7.17-10.12,2.39ZM437,239.11c7.93-18.6,4.94-62.31-4.25-71.45-3.6,5.05-4.18,10.31-1.41,16.12,2.92,6.14,3.73,12.9,4.68,19.57,1.63,11.55,1.15,23.17.99,35.77Z"/>
    <path class="cls-3" d="M417.04,180.41c-.59,1.64-.06,3.13.43,4.72,5.42,17.66,6.71,35.37,1.44,53.42-6.22,21.34-17.79,39.09-35.63,52.1-22.13,16.15-47.21,21.9-74.18,16.56-30.83-6.11-52.84-24.17-66.69-52.17-10.55-21.32-12.83-43.62-6.62-66.66.96-3.57-1.22-3.42-3.39-3.42-11.36,0-22.73.1-34.09.08-20.98-.03-41.95-.11-62.93-.17-1.58-2.52-4.54-3.73-5.73-6.73-2.75-6.91.1-12.04,4.71-16.77,33.33-.04,66.66-.08,99.98-.13,3.62,0,7.24-.11,10.86-.04,1.99.04,3.24-.8,4.22-2.47,19.02-32.21,63.82-53.6,107.75-38.08,19.84,7.01,35.48,19.5,47.34,36.83,1.12,1.64,1.82,4.1,4.69,3.44-1.46,1.16-2.77,2.59-4.39,3.42-6.64,3.38-13.37,6.57-20.06,9.84-15.28,7.45-30.66,14.71-45.43,23.18.02-.62-.04-1.26.07-1.86,2.87-15.77,5.83-31.53,8.58-47.32.63-3.62,1.92-7.31.85-11.46-7.61,6.31-13.86,13.25-20.15,20.16-1.16,1.28-1.63,2.85-1.92,4.4-1.64,8.66-3.18,17.33-4.71,26.01-.74,4.18-1.3,8.25-6.1,10.21-2.09.85-4.07,2.65-5.42,4.5-5.05,6.91-5.4,15.36-1.68,22.26,3.65,6.77,11.33,10.62,19.59,9.83,7.7-.74,15.55-6.83,17.26-14.1.73-3.1,2.34-4.71,4.89-6.02,19.65-10.09,39.29-20.21,58.93-30.33.99,2.19-.79,4.6.77,7.37,2.38-3.74,4.56-7.17,6.75-10.6ZM331.85,289.69c-.04-1.02-.05-1.64-.1-2.26-.33-4.14-3.15-6.85-6.93-6.67-3.28.16-5.6,2.95-5.75,6.98-.05,1.36-.09,2.73,0,4.09.26,4.2,2.49,6.84,5.81,6.99,3.35.14,5.98-2.24,6.72-6.2.2-1.09.2-2.22.26-2.93ZM251.85,221.18c.74-.14,1.97-.34,3.18-.59,3.17-.65,5.13-2.54,5.39-5.8.26-3.19-1.9-5.77-5.34-6.73-2.74-.77-5.45-.57-8.06.45-3.67,1.44-5.24,5.57-3.35,8.95,1.66,2.97,4.58,3.59,8.18,3.73ZM331.75,136.22c.05-6.57-1.65-9.19-6.03-9.26-3.89-.07-6.44,2.98-6.59,7.88-.2,6.31,1.83,9.74,5.92,10.01,4.44.29,6.66-2.57,6.71-8.63ZM402.75,220.81c.54-.04,1.41-.07,2.27-.2,3.58-.52,6.19-3.22,6.2-6.36,0-3.15-2.22-5.71-5.72-6.4-2.75-.54-5.47-.29-8.09.73-2.14.84-3.39,2.35-3.66,4.73-.56,4.91,2.45,7.55,8.99,7.49Z"/>
    <path class="cls-8" d="M446.37,444.9c-5.37,0-10.75.07-16.12-.02-6.3-.1-8.78-1.88-10.85-7.77-.61-1.73-1.03-3.39-3.41-2.98-2.83.49-6.53-1.73-8.19,2.41-2.36,5.91-7.06,8.38-12.96,8.37-8.32-.02-16.74,1.24-24.92-1.43-1.17-.38-2.21.17-3.28.43-9.17,2.25-18.31,2.04-27.42-.32-1.25-.32-2.45-.61-3.66-.15-7.79,2.91-15.82,1.64-23.74,1.18-4.43-.26-7.23-3.42-8.28-7.6-.64-2.53-1.86-3.23-4.19-2.96-1.36.16-2.75.28-4.11.18-2.09-.16-3.06.78-3.75,2.69-1.79,4.99-5.57,7.54-10.77,7.93-6.61.5-13.23.11-19.85-.05-5.78-.14-12.68-8.5-8.68-15.43,7.93-13.72,15.37-27.73,23.06-41.59,2.91-5.24,6.11-10.32,8.91-15.62,3.38-6.4,8.6-9.48,15.73-9.53,4-.03,8,.03,11.99-.04,5.79-.11,10.72,1.72,15.79,4.71,4.77,2.81,10.23,3.83,16.17.58,15.24-8.36,30.75-8.31,45.86.73,3.66,2.19,11.26,1.93,14.46-1.05,3.15-2.93,6.74-4.62,11.07-4.8,6.61-.28,13.22-.67,19.82.23,2.78.38,5.45,1.17,7.45,3.16,2.41,2.4,4.83,1.92,7.45.62,13.91-6.92,28.89-6.25,42.82-2.46,26.82,7.29,28.35,38.25,14.04,53.68-6.95,7.49-15.59,11.51-25.6,12.68-2.68.31-4.11,1.07-4.72,4.03-1.35,6.52-5.82,10.03-12.49,10.21-5.87.16-11.74.03-17.62.03,0,0,0-.02,0-.03ZM382.29,431.32c3.2,0,5.72-.26,8.17.05,5.43.71,9.42-.57,11.38-6.27.59-1.7,1.72-3.67,4.26-3.65,5.49.04,10.99.02,16.48-.03,1.66-.02,2.4.75,2.87,2.3.74,2.43-.3,5.93,2.3,7.1,2.2.98,5.13.34,7.74.41,1,.02,2.01-.08,2.99.03,2.98.32,4.04-.59,3.22-3.79-1.14-4.46-1.81-9.05-2.69-13.58-2.09-10.77-4.24-21.53-6.24-32.33-.6-3.26-2.07-4.68-5.53-4.38-3.34.29-6.74.09-10.11.04-2.19-.04-3.45.81-4.74,2.77-4.4,6.66-8.18,13.68-12.22,20.54-5.87,9.98-11.65,20.02-17.9,30.79ZM305.02,377.27c-5.81-1.94-9.07,1.81-12.14,7.55-7.4,13.88-15.46,27.41-23.22,41.09-.84,1.48-2.72,3.06-1.99,4.58.81,1.68,3.16.49,4.81.76,6.72,1.09,11.98-.52,14.28-7.7.53-1.67,1.96-2.1,3.59-2.1,5.37,0,10.74.02,16.12-.04,1.94-.02,2.83.79,3.33,2.7,1.91,7.3,1.98,7.28,9.57,7.21,1.25-.01,2.51-.08,3.75,0,2.85.21,3.32-1.03,2.76-3.63-3.01-13.78-5.92-27.59-8.8-41.39-1.89-9.06-1.84-9.07-12.06-9.04ZM365.18,376.24c-8.33.19-16.04,1.78-21.47,9.04-5.38,7.17-5.94,20.55,7.89,24.15,3.14.82,6.27,1.67,9.37,2.59,1.6.48,3.11,1.23,3.14,3.23.03,1.98-1.5,2.76-3,3.42-5.11,2.23-10.02.86-14.92-.86-2.44-.86-4.4-4.18-6.76-3.18-2.26.96-3.69,3.89-5.48,5.96-.08.09-.14.21-.22.3-2.48,3.02-2.37,4.08,1.05,6.03,10.11,5.78,20.74,6.56,31.79,3.13,3.34-1.04,6.07-3.02,8.26-5.59,7-8.2,6.6-21-6.36-24.92-3.31-1-6.64-1.96-10.01-2.75-2.1-.49-3.34-1.46-3.42-3.71-.08-2.37,1.11-3.88,3.29-4.33,3.33-.69,7.14-1.37,9.93.34,5.63,3.46,9.08,1.45,12.15-3.27.13-.2.36-.34.55-.5,2.52-2.17,2.03-3.93-.65-5.55-4.67-2.83-9.82-3.49-15.14-3.52ZM473.65,377.4s0-.07,0-.1c-2.87,0-5.77.25-8.61-.07-3.3-.37-4.35,1.24-4.93,4.07-2.96,14.43-6.05,28.83-9.03,43.25-1.4,6.79-1.32,6.81,5.62,6.78q6.95-.02,8.71-6.76c1.83-6.98,1.83-7.06,8.95-7.23,7.28-.18,14.14-1.46,19.9-6.35,6.21-5.27,8.79-14.25,6.29-22.12-2.1-6.61-8.26-10.9-16.79-11.44-3.36-.21-6.74-.03-10.11-.03Z"/>
    <path class="cls-8" d="M460.82,285.41c3.28-38.91,4.61-77.88,5.84-116.84.05-1.62-.09-3.27.11-4.87.34-2.69-.65-4.2-3.1-5.59-12.58-7.12-19.62-18.34-20.6-32.46-1.76-25.42,2.63-49.77,15.76-72.05,4.1-6.96,9.1-13.18,16.18-17.36,9.51-5.62,19.28-3.7,27.2,3.4,12.38,11.11,18.44,25.77,22.85,41.29,3.7,13.04,5.19,26.41,4.67,39.93-.64,16.6-7.15,29.98-22.63,37.73-2.27,1.14-2.2,2.66-2.15,4.54.6,21.61,1.18,43.22,1.8,64.83.69,24.23,1.41,48.46,2.11,72.69.15,5.12.49,10.25.36,15.36-.46,18.43-18.83,30.35-34.83,22.55-8.74-4.26-13.26-11.65-13.5-21.3-.26-10.61-.06-21.23-.06-31.85ZM471.49,60.54c-.41-.07-.82-.14-1.22-.22-.8,1.61-1.66,3.19-2.38,4.84-7.35,17.02-10.38,34.86-10.16,53.32.19,15.54,6.69,24.78,21.28,29.81,1.8.62,2.44,1.39,2.33,3.12-.05.87,0,1.75-.02,2.62-1.2,50.58-2.97,101.14-5.07,151.69-.17,3.99-.51,8.01.35,11.96.88,4.06,3.68,6.71,7.26,7.07,3.67.38,7.48-1.84,9.14-5.32.83-1.74,1.03-3.58,1.01-5.48-.13-9.12-.19-18.24-.39-27.36-.99-44.46-1.97-88.92-3.1-133.38-.09-3.57,1.07-5.24,4.47-5.93,11.5-2.36,19.36-13.83,19.84-25.26.68-16.25-1.45-32.16-6.73-47.58-1.68-4.92-3.54-9.79-6.81-15.02-.19,3.22-.44,5.56-.44,7.9.04,10.87.17,21.74.23,32.61.04,6.5.12,13-.02,19.49-.1,4.49-3.64,6.72-7.78,5.06-3.01-1.21-3.12-3.84-3.12-6.57.01-21.24.02-42.48-.04-63.72-.01-3.93-1.55-5.75-4.48-5.57-3.47.21-3.68,2.78-3.68,5.42.02,15.87.05,31.73.07,47.6,0,6,.11,12-.05,17.99-.12,4.37-3.32,6.41-7.47,4.98-3.24-1.11-3.06-4.01-3.06-6.56-.05-13.74.03-27.49.05-41.23.01-5.43,0-10.86,0-16.29Z"/>
    <path class="cls-8" d="M101.57,444.92c-10.99,0-21.98.13-32.97-.05-9.09-.15-13.05-5.81-11.08-14.71,3.84-17.4,7.61-34.81,11.11-52.28,2.02-10.1,6.59-15.4,17.72-15.31,13.22.11,26.45-.63,39.67.4,3.79.3,6.44,2.28,9.06,4.54,2.51,2.16,7.03,2.48,9.39.2,3.53-3.42,7.74-5.14,12.5-5.09,8.28.09,16.77-1.51,24.7,2.36,1.56.76,2.97-.04,4.3-.61,3.29-1.39,6.75-1.88,10.25-1.9,13.61-.08,27.23-.14,40.84,0,6.45.06,12.39,1.55,16,7.75,7.14,12.27-2.66,31-16.75,31.49-3.49.12-4.33,1.56-4.87,4.42-1.69,8.95-3.53,17.86-5.33,26.79-1.7,8.43-5.64,11.91-14.09,11.99-13.24.12-26.48.13-39.72.02-7.86-.07-10.15-1.75-12.6-9.03-.53-1.57-1.25-1.92-2.63-1.88-1.5.05-3,.12-4.49.04-2.53-.15-3.98.74-5.02,3.29-2.1,5.17-6.45,7.49-11.89,7.53-11.37.09-22.73.03-34.1.02ZM122.67,431.29c2.93,0,5.36-.34,7.66.07,6.06,1.06,10.03-1.03,11.96-6.95.8-2.47,2.64-3.2,5.2-3.07,3.86.19,7.74.04,11.61.07,6.81.04,6.86.04,8.56,6.75.55,2.17,1.36,3.37,3.93,3.15,2.97-.26,6-.18,8.98.03,2.46.17,3.34-.51,2.79-3.07-3.44-16.08-6.84-32.17-10.16-48.28-.43-2.09-1.25-2.94-3.44-2.87-4.24.14-8.49.12-12.74-.01-2.14-.07-3.44.73-4.5,2.56-4.27,7.33-8.77,14.54-12.96,21.91-5.54,9.73-11.76,19.09-16.9,29.72ZM93.64,398.37c.36-2.07.73-3.53.84-5.01.23-3.28,1.87-4.29,5.1-4.08,4.48.29,8.99.04,13.48.07q8.87.05,10.68-8.69c.05-.24.12-.49.18-.73.51-1.84.08-2.74-2.09-2.73-12.11.06-24.22.03-36.33-.03-1.82,0-2.46.64-2.86,2.5-3.47,16.21-7.02,32.41-10.73,48.56-.64,2.77.23,3.1,2.64,3.06,9.86-.14,19.73-.16,29.59-.14,9.74.02,9.64.04,11.26-9.6.37-2.2-.19-2.5-2.1-2.51-7.11-.04-14.23-.19-21.34-.34-.96-.02-2.16.38-2.84-.51-1.42-1.83,1.93-8.34,4.35-8.39,4.74-.1,9.49-.05,14.23-.04,8.65.03,8.53.01,10.09-8.46.47-2.57-.26-3-2.54-2.97-7.11.09-14.22.03-21.63.03ZM216.72,377.18v-.04c-4.74,0-9.48,0-14.22,0-.5,0-1,0-1.5,0-9.49.05-9.4.07-11.39,9.36-.51,2.38.2,2.79,2.3,2.74,3.87-.08,7.74.14,11.6.01,2.29-.07,3.05.41,2.51,2.91-2.32,10.59-4.44,21.21-6.65,31.82q-1.5,7.2,5.85,7.27c7.62.08,7.55.06,8.99-7.46,1.97-10.26,4.11-20.49,6.07-30.76.53-2.75,1.74-3.97,4.7-3.76,3.6.25,7.23-.03,10.85.08,1.95.06,2.84-.59,3.31-2.58.53-2.22-.17-4.8.83-6.58,1.97-3.53-.3-3.01-2.28-3.02-6.99-.02-13.97,0-20.96,0Z"/>
    <path class="cls-3" d="M61.23,204.46c5.86.03,11.73.09,17.59.09,43.84.02,87.68.04,131.52.05,6.01,0,6.03,0,5.98,5.83-.05,4.75.11,9.47.73,14.2.66,4.96.53,5-4.35,5-43.47,0-86.93,0-130.4-.03-7.74,0-15.48-.07-23.21-.11-.26-.26-.5-.54-.78-.78-8.96-7.65-8.47-18.42,2.92-24.25Z"/>
    <path class="cls-3" d="M116.61,248.41c33.49,0,66.97.05,100.46-.09,3.78-.02,5.84.88,7.05,4.71,1.96,6.21,5.29,11.84,8.67,17.4.55.9,1.9,1.75,1.18,2.9-.64,1.03-2.06.55-3.14.55-27.12.02-54.23.02-81.35.02-1.62,0-3.25-.09-4.8.53-6.66-1.18-13.41-.82-20.12-.83-9.78-.02-14.48-7.75-13.72-15.37.41-4.15,3.53-6.72,5.78-9.8Z"/>
    <path class="cls-3" d="M180.25,293.77c19.1-.03,38.21-.06,57.31-.09,1.25,0,2.54.2,3.74-.02,7.36-1.4,12.5,2.06,17.95,6.64,10.61,8.94,22.8,15.38,36.72,19.13-8.39,0-16.43,0-24.47,0-27.73,0-55.46,0-83.2-.03-3.49,0-6.98-.16-10.47-.25-.95-.98-2.01-1.88-2.84-2.95-6.4-8.31-4.59-15.99,5.25-22.44Z"/>
    <path class="cls-2" d="M415.9,83.19c.09,6.99-1.52,12.94-4.14,18.69-1.01,2.21-1.28,2.93-3.96.9-15.77-11.9-32.32-22.4-52.08-26.64-6.9-1.48-6.44-.93-4.55-7.29,3.61-12.13,12.69-17.8,24.16-19.92,20.56-3.81,35.61,10.95,39.38,25.26.83,3.16,1.34,6.35,1.2,9Z"/>
    <path class="cls-6" d="M264.89,48.75c18.24-.29,31.37,10.31,34.81,23.65.53,2.07.73,3.04-2.11,3.63-16.2,3.36-30.99,10.33-45.21,18.59-1.26.73-2.3,1.85-3.38,2.86-3.26,3.05-7.12,1.24-10.72,1.26-1.05,0-1.31-1.41-1.59-2.33-4.19-13.56-2.69-26.04,6.97-37.01,6.28-7.13,14.26-10.38,21.24-10.65Z"/>
    <path class="cls-7" d="M281.1,100.35c8.91-4.6,17.61-7.41,26.7-8.68,33.47-4.68,63.67,3.04,90.01,24.53,8.45,6.9,15.63,15.06,21.7,24.14.65.97,1.96,2.02,1.3,3.26-.58,1.1-2.05.3-3.1.49-4.37.79-6.88-1.44-9.59-4.72-17.2-20.81-39.18-33.52-65.88-38-9.05-1.52-18.11-1.34-27.21-.75-10.48.69-20.97.23-31.45.04-.57-.01-1.13-.14-2.49-.32Z"/>
    <path class="cls-1" d="M339.33,197.36c14.76-8.47,30.14-15.73,45.43-23.18,6.69-3.26,13.43-6.46,20.06-9.84,1.62-.83,2.94-2.26,4.39-3.42,4.98-2.25,9.89-4.72,15.34-5.62,3.85-.63,4.15-.35,2.61,3.16-3.26,7.38-6.75,14.67-10.13,21.97-2.17,3.41-4.36,6.84-6.74,10.58-1.56-2.77.23-5.18-.77-7.37,1.04-2.94,2.15-5.85,3.1-8.82.45-1.41.92-3.5-1.4-3.32-5.17.4-10.51-.99-15.5,1.49-16.85,8.4-33.78,16.63-50.52,25.24-2.7,1.39-4.18,1.24-5.88-.87Z"/>
    <path class="cls-9" d="M325.83,329.32c3.42-2.21,6.92-1.88,10.12-2.39,27.68-4.34,51.97-15.34,71.47-35.93,1.46-1.54,2.98-3.02,4.51-4.49.53-.51,1.16-.91,2.38-1.85-.5,2.87-1.74,4.57-3.04,6.25-12.67,16.42-29.28,27.31-48.54,34.37-9.63,3.53-19.6,5.68-29.93,5.79-2.26.02-4.46-.2-6.97-1.76Z"/>
    <path class="cls-4" d="M437,239.11c.17-12.6.64-24.22-.99-35.77-.94-6.67-1.75-13.43-4.68-19.57-2.76-5.8-2.18-11.07,1.41-16.12,9.19,9.14,12.18,52.85,4.25,71.45Z"/>
    <path class="cls-8" d="M339.33,197.36c1.7,2.11,3.17,2.26,5.88.87,16.74-8.61,33.67-16.84,50.52-25.24,4.99-2.49,10.33-1.1,15.5-1.49,2.32-.18,1.85,1.92,1.4,3.32-.95,2.97-2.05,5.88-3.1,8.82-19.64,10.11-39.28,20.24-58.93,30.33-2.55,1.31-4.16,2.92-4.89,6.02-1.71,7.28-9.56,13.36-17.26,14.1-8.26.79-15.93-3.06-19.59-9.83-3.72-6.9-3.37-15.35,1.68-22.26,1.36-1.86,3.33-3.65,5.42-4.5,4.8-1.96,5.36-6.03,6.1-10.21,1.53-8.68,3.07-17.35,4.71-26.01.29-1.55.76-3.13,1.92-4.4,6.29-6.91,12.54-13.85,20.15-20.16,1.07,4.15-.22,7.84-.85,11.46-2.75,15.79-5.71,31.55-8.58,47.32-.11.61-.05,1.24-.07,1.86Z"/>
    <path class="cls-8" d="M331.85,289.69c-.06.72-.05,1.84-.26,2.93-.75,3.96-3.37,6.34-6.72,6.2-3.32-.14-5.55-2.79-5.81-6.99-.09-1.36-.04-2.73,0-4.09.15-4.02,2.47-6.82,5.75-6.98,3.78-.18,6.61,2.53,6.93,6.67.05.62.06,1.24.1,2.26Z"/>
    <path class="cls-8" d="M251.85,221.18c-3.6-.14-6.51-.76-8.18-3.73-1.89-3.38-.33-7.51,3.35-8.95,2.62-1.02,5.32-1.22,8.06-.45,3.44.96,5.6,3.55,5.34,6.73-.27,3.27-2.22,5.15-5.39,5.8-1.21.25-2.44.46-3.18.59Z"/>
    <path class="cls-8" d="M331.75,136.22c-.05,6.06-2.27,8.91-6.71,8.63-4.09-.27-6.12-3.7-5.92-10.01.16-4.9,2.7-7.95,6.59-7.88,4.38.07,6.09,2.69,6.03,9.26Z"/>
    <path class="cls-8" d="M402.75,220.81c-6.54.06-9.55-2.59-8.99-7.49.27-2.38,1.51-3.9,3.66-4.73,2.62-1.02,5.34-1.27,8.09-.73,3.49.69,5.72,3.25,5.72,6.4,0,3.14-2.62,5.84-6.2,6.36-.86.13-1.74.15-2.27.2Z"/>
    <path class="cls-3" d="M382.29,431.32c6.26-10.77,12.03-20.81,17.9-30.79,4.04-6.87,7.82-13.88,12.22-20.54,1.29-1.96,2.56-2.81,4.74-2.77,3.37.06,6.76.26,10.11-.04,3.46-.3,4.92,1.12,5.53,4.38,1.99,10.79,4.15,21.55,6.24,32.33.88,4.53,1.55,9.11,2.69,13.58.82,3.2-.24,4.11-3.22,3.79-.99-.11-2,0-2.99-.03-2.61-.06-5.54.58-7.74-.41-2.6-1.16-1.56-4.67-2.3-7.1-.47-1.55-1.22-2.31-2.87-2.3-5.49.05-10.99.07-16.48.03-2.54-.02-3.67,1.95-4.26,3.65-1.96,5.7-5.96,6.98-11.38,6.27-2.44-.32-4.96-.05-8.17-.05ZM419.91,394.35c-.32-.03-.65-.06-.97-.09-1.44,2.42-2.9,4.83-4.3,7.28-1.39,2.44-4.47,5.57-3.13,7.4,1.43,1.96,5.58.85,8.55.97.25,0,.5-.01.75-.05,1.2-.18,1.82-.94,1.61-2.09-.79-4.48-1.67-8.94-2.51-13.41Z"/>
    <path class="cls-3" d="M305.02,377.27c10.21-.03,10.17-.02,12.06,9.04,2.88,13.81,5.79,27.61,8.8,41.39.57,2.6.09,3.84-2.76,3.63-1.24-.09-2.5-.02-3.75,0-7.59.07-7.65.09-9.57-7.21-.5-1.91-1.39-2.72-3.33-2.7-5.37.06-10.74.05-16.12.04-1.63,0-3.06.42-3.59,2.1-2.29,7.19-7.56,8.79-14.28,7.7-1.65-.27-3.99.92-4.81-.76-.74-1.52,1.14-3.1,1.99-4.58,7.76-13.69,15.82-27.22,23.22-41.09,3.07-5.75,6.33-9.5,12.14-7.55ZM303.08,393.35c-2.83,5.36-5.19,9.82-7.54,14.29-.29.55-.45,1.16.11,1.68.53.51,9.86.66,10.3.09.27-.35.49-.91.43-1.34-.64-4.63-1.26-9.28-3.3-14.73Z"/>
    <path class="cls-3" d="M365.18,376.24c5.33.03,10.47.69,15.14,3.52,2.67,1.62,3.17,3.38.65,5.55-.19.16-.42.3-.55.5-3.07,4.72-6.52,6.73-12.15,3.27-2.79-1.71-6.61-1.03-9.93-.34-2.18.45-3.37,1.96-3.29,4.33.08,2.26,1.31,3.23,3.42,3.71,3.37.78,6.7,1.74,10.01,2.75,12.95,3.92,13.36,16.72,6.36,24.92-2.2,2.57-4.92,4.56-8.26,5.59-11.05,3.43-21.68,2.65-31.79-3.13-3.42-1.96-3.53-3.01-1.05-6.03.08-.1.14-.21.22-.3,1.79-2.07,3.22-5.01,5.48-5.96,2.36-1,4.32,2.33,6.76,3.18,4.9,1.72,9.81,3.09,14.92.86,1.5-.66,3.03-1.43,3-3.42-.03-2-1.54-2.75-3.14-3.23-3.11-.92-6.24-1.78-9.37-2.59-13.83-3.6-13.26-16.98-7.89-24.15,5.44-7.26,13.14-8.84,21.47-9.04Z"/>
    <path class="cls-3" d="M473.65,377.4c3.37,0,6.75-.18,10.11.03,8.53.54,14.7,4.83,16.79,11.44,2.5,7.88-.07,16.85-6.29,22.12-5.76,4.89-12.63,6.17-19.9,6.35-7.12.17-7.12.25-8.95,7.23q-1.76,6.73-8.71,6.76c-6.94.02-7.02,0-5.62-6.78,2.97-14.43,6.07-28.82,9.03-43.25.58-2.84,1.63-4.44,4.93-4.07,2.84.32,5.74.07,8.61.07,0,.03,0,.07,0,.1ZM474.99,405.45c1.73-.2,3.5-.24,5.19-.63,4.29-1.01,7.19-4.91,6.88-9.01-.33-4.33-2.75-6.18-8.42-6.48q-5.5-.28-6.89,6.06c-.4,1.82-.92,3.63-1.18,5.48-.72,4.99-.63,5.05,4.43,4.58Z"/>
    <path class="cls-3" d="M471.49,60.54c0,5.43,0,10.86,0,16.29-.03,13.74-.1,27.49-.05,41.23,0,2.55-.18,5.45,3.06,6.56,4.15,1.42,7.35-.61,7.47-4.98.16-5.99.06-11.99.05-17.99-.02-15.87-.05-31.73-.07-47.6,0-2.63.21-5.2,3.68-5.42,2.93-.18,4.47,1.64,4.48,5.57.06,21.24.05,42.48.04,63.72,0,2.73.11,5.36,3.12,6.57,4.14,1.66,7.68-.57,7.78-5.06.14-6.49.06-12.99.02-19.49-.06-10.87-.19-21.74-.23-32.61,0-2.34.25-4.67.44-7.9,3.27,5.23,5.13,10.1,6.81,15.02,5.28,15.42,7.41,31.33,6.73,47.58-.48,11.43-8.33,22.89-19.84,25.26-3.4.7-4.56,2.37-4.47,5.93,1.13,44.46,2.11,88.92,3.1,133.38.2,9.12.26,18.24.39,27.36.03,1.9-.17,3.74-1.01,5.48-1.66,3.48-5.47,5.69-9.14,5.32-3.58-.37-6.37-3.02-7.26-7.07-.86-3.95-.52-7.97-.35-11.96,2.1-50.55,3.87-101.11,5.07-151.69.02-.87-.03-1.75.02-2.62.1-1.72-.53-2.5-2.33-3.12-14.59-5.03-21.09-14.26-21.28-29.81-.22-18.46,2.81-36.31,10.16-53.32.71-1.65,1.58-3.23,2.38-4.84.41.07.82.14,1.22.22Z"/>
    <path class="cls-5" d="M122.67,431.29c5.13-10.64,11.36-19.99,16.9-29.72,4.2-7.37,8.69-14.58,12.96-21.91,1.07-1.83,2.37-2.63,4.5-2.56,4.24.13,8.49.15,12.74.01,2.19-.07,3.01.78,3.44,2.87,3.31,16.11,6.72,32.2,10.16,48.28.55,2.56-.33,3.24-2.79,3.07-2.98-.2-6.01-.29-8.98-.03-2.56.22-3.38-.98-3.93-3.15-1.7-6.71-1.75-6.71-8.56-6.75-3.87-.02-7.75.13-11.61-.07-2.56-.13-4.4.61-5.2,3.07-1.93,5.92-5.89,8.01-11.96,6.95-2.3-.4-4.73-.07-7.66-.07ZM151.06,409.7c3.97,0,7.3-.05,10.64.02,1.72.04,2.16-.69,1.86-2.27-.89-4.79-1.51-9.63-3.18-14.82-3.17,5.81-6.07,11.12-9.32,17.07Z"/>
    <path class="cls-5" d="M93.64,398.37c7.42,0,14.53.06,21.63-.03,2.28-.03,3.01.4,2.54,2.97-1.56,8.47-1.43,8.48-10.09,8.46-4.74-.01-9.49-.06-14.23.04-2.42.05-5.77,6.56-4.35,8.39.69.88,1.88.48,2.84.51,7.11.16,14.23.3,21.34.34,1.91.01,2.47.32,2.1,2.51-1.63,9.64-1.53,9.62-11.26,9.6-9.86-.02-19.73,0-29.59.14-2.42.04-3.28-.29-2.64-3.06,3.71-16.16,7.27-32.35,10.73-48.56.4-1.86,1.03-2.51,2.86-2.5,12.11.05,24.22.08,36.33.03,2.17,0,2.6.9,2.09,2.73-.07.24-.13.48-.18.73q-1.81,8.75-10.68,8.69c-4.49-.02-9,.22-13.48-.07-3.24-.21-4.87.8-5.1,4.08-.1,1.48-.48,2.94-.84,5.01Z"/>
    <path class="cls-5" d="M216.72,377.18c6.99,0,13.97-.01,20.96,0,1.98,0,4.25-.51,2.28,3.02-.99,1.78-.3,4.36-.83,6.58-.47,1.99-1.36,2.64-3.31,2.58-3.61-.11-7.25.17-10.85-.08-2.95-.2-4.17,1.01-4.7,3.76-1.96,10.26-4.09,20.49-6.07,30.76-1.45,7.52-1.38,7.54-8.99,7.46q-7.37-.07-5.85-7.27c2.22-10.61,4.33-21.24,6.65-31.82.55-2.5-.22-2.98-2.51-2.91-3.86.13-7.74-.09-11.6-.01-2.1.04-2.81-.37-2.3-2.74,1.99-9.3,1.9-9.32,11.39-9.36.5,0,1,0,1.5,0,4.74,0,9.48,0,14.22,0v.04Z"/>
    <path class="cls-8" d="M419.91,394.35c.84,4.47,1.72,8.93,2.51,13.41.2,1.14-.41,1.91-1.61,2.09-.25.04-.5.06-.75.05-2.97-.12-7.12.99-8.55-.97-1.34-1.84,1.74-4.96,3.13-7.4,1.39-2.45,2.86-4.85,4.3-7.28.32.03.65.06.97.09Z"/>
    <path class="cls-8" d="M303.08,393.35c2.04,5.45,2.66,10.1,3.3,14.73.06.42-.15.98-.43,1.34-.44.56-9.76.41-10.3-.09-.56-.53-.4-1.13-.11-1.68,2.34-4.47,4.71-8.93,7.54-14.29Z"/>
    <path class="cls-8" d="M474.99,405.45c-5.05.46-5.14.41-4.43-4.58.27-1.84.78-3.65,1.18-5.48q1.39-6.34,6.89-6.06c5.68.29,8.09,2.15,8.42,6.48.31,4.09-2.59,7.99-6.88,9.01-1.69.4-3.46.43-5.19.63Z"/>
    <path class="cls-8" d="M151.06,409.7c3.25-5.96,6.15-11.26,9.32-17.07,1.67,5.19,2.29,10.04,3.18,14.82.29,1.58-.15,2.31-1.86,2.27-3.33-.07-6.67-.02-10.64-.02Z"/>
  </g>
</svg>