<svg class="svg-icon" style="width: 1em; height: 1em;vertical-align: middle;fill: currentColor;overflow: hidden;" viewBox="0 0 1024 1024" version="1.1" xmlns="http://www.w3.org/2000/svg"><path d="M844.753455 712.378182h1.186909V907.636364a69.818182 69.818182 0 0 1-69.818182 69.818181H249.018182a69.818182 69.818182 0 0 1-69.818182-69.818181v-195.258182l0.046545-108.544c-96.349091-25.437091-166.167273-112.407273-166.167272-214.295273 0-122.810182 100.608-222.091636 224.651636-222.091636a227.141818 227.141818 0 0 1 65.256727 9.472c33.186909-83.2 115.246545-140.567273 209.128728-140.567273 93.882182 0 175.941818 57.367273 209.105454 140.567273a227.141818 227.141818 0 0 1 65.28-9.472c123.810909 0 224.442182 99.374545 224.442182 222.091636 0 101.888-69.841455 188.858182-166.190545 214.295273v108.544zM500.363636 711.237818h277.410909v-164.445091l29.277091-3.723636c77.963636-9.867636 136.913455-75.589818 136.913455-153.530182 0-85.527273-70.446545-155.136-157.463273-155.136-25.506909 0-49.873455 5.841455-71.68 16.919273l-39.261091 19.921454-8.704-43.170909c-14.498909-71.936-79.080727-124.765091-154.763636-124.765091-75.636364 0-140.218182 52.829091-154.717091 124.765091l-8.704 43.170909-39.284364-19.921454a157.696 157.696 0 0 0-71.68-16.919273c-87.249455 0-157.672727 69.515636-157.672727 155.136 0 77.963636 58.973091 143.662545 136.913455 153.530182l29.277091 3.723636v164.445091h63.534545a59.252364 59.252364 0 0 1-0.372364-6.795636v-102.749091c0-19.269818 8.610909-34.909091 27.880728-34.909091 19.293091 0 31.208727 15.639273 31.208727 34.909091v102.749091c0 2.327273-0.162909 4.608-0.512 6.795636h69.236364v-196.864c0-19.269818 10.845091-34.909091 30.138181-34.909091 19.269818 0 33.024 15.639273 33.024 34.909091v196.887273zM249.018182 907.636364h527.127273v-125.44H249.018182V907.636364z"  /></svg>