<svg class="svg-icon" style="width: 1em;height: 1em;vertical-align: middle;fill: currentColor;overflow: hidden;" viewBox="0 0 1024 1024" version="1.1" xmlns="http://www.w3.org/2000/svg"><path d="M765.3888 883.6096H258.2528c-91.4432 0-165.8368-77.8752-165.8368-173.568V304.128c0-95.6928 74.3936-173.568 165.8368-173.568h507.136c91.4432 0 165.8368 77.8752 165.8368 173.568v214.3744c0 16.9472-13.7728 30.72-30.72 30.72s-30.72-13.7728-30.72-30.72V304.128c0-61.7984-46.848-112.128-104.3968-112.128H258.2528c-57.5488 0-104.3968 50.2784-104.3968 112.128v405.9648c0 61.7984 46.848 112.128 104.3968 112.128h507.136c57.5488 0 104.3968-50.2784 104.3968-112.128 0-16.9472 13.7728-30.72 30.72-30.72s30.72 13.7728 30.72 30.72c0 95.6928-74.3936 173.5168-165.8368 173.5168z" fill="#363F5B" /><path d="M758.8352 382.208c0-0.2048 0-0.3584-0.0512-0.5632-0.1536-1.3824-0.3584-2.7136-0.6656-4.0448-0.0512-0.256-0.1024-0.512-0.2048-0.768-0.3584-1.3312-0.768-2.6112-1.2288-3.84 0-0.0512-0.0512-0.1024-0.0512-0.1536v-0.0512a25.6 25.6 0 0 0-1.8944-3.7376c-0.1536-0.256-0.3072-0.512-0.4608-0.7168-0.7168-1.1264-1.4336-2.2016-2.304-3.2256l-0.1024-0.1024c-0.8192-1.024-1.792-1.9456-2.7136-2.8672-0.256-0.2048-0.4608-0.4608-0.7168-0.6656-0.9728-0.8704-2.048-1.6896-3.1232-2.4576 0 0-0.0512 0-0.0512-0.0512-1.1264-0.7168-2.2528-1.3824-3.4816-1.9968-0.256-0.1024-0.512-0.256-0.768-0.3584-2.4576-1.1264-5.0176-1.9456-7.7824-2.4064-0.3072-0.0512-0.6144-0.1024-0.9728-0.1536-1.3312-0.2048-2.7136-0.3072-4.1472-0.3072h-145.1008c-16.9472 0-30.72 13.7728-30.72 30.72s13.7728 30.72 30.72 30.72h70.2464l-144.128 142.2336-72.448-75.52a30.48448 30.48448 0 0 0-21.7088-9.4208c-8.0896-0.3584-16.128 3.0208-21.9648 8.7552l-139.2128 136.2944a30.73536 30.73536 0 0 0-0.4608 43.4688c6.0416 6.144 13.9776 9.216 21.9648 9.216 7.7312 0 15.5136-2.9184 21.504-8.7552l117.0432-114.5856 72.6528 75.6736a30.60224 30.60224 0 0 0 21.76 9.4208c8.2432 0.256 16.128-3.072 21.9648-8.8576l167.3216-165.0688v62.2592c0 16.9472 13.7728 30.72 30.72 30.72s30.72-13.7728 30.72-30.72V384.5632l-0.1536-2.3552z" fill="#B11EFF" /></svg>