<svg xmlns="http://www.w3.org/2000/svg" xmlns:xlink="http://www.w3.org/1999/xlink" width="64.358" height="54.111" viewBox="0 0 64.358 54.111"><defs><style>.a{fill:#0f1332;}.b{fill:#f26722;}.c{fill:url(#a);}.d{fill:url(#b);}.e{fill:url(#c);}.f{fill:#fdfefe;}.g{fill:url(#d);}.h{fill:url(#e);}.i{fill:#fff;}</style><linearGradient id="a" y1="0.5" x2="1" y2="0.5" gradientUnits="objectBoundingBox"><stop offset="0" stop-color="#47c1bc"/><stop offset="1" stop-color="#47c1bc"/></linearGradient><linearGradient id="b" x1="0" y1="0.5" x2="1" y2="0.5" xlink:href="#a"/><linearGradient id="c" x1="0" y1="0.5" x2="1" y2="0.5" xlink:href="#a"/><linearGradient id="d" x1="0" y1="0.5" x2="1" y2="0.5" xlink:href="#a"/><linearGradient id="e" x1="0" y1="0.5" x2="1" y2="0.5" xlink:href="#a"/></defs><g transform="translate(-156.506 -74.645)"><path class="a" d="M172.828,94.245q-5.054.009-10.107.017c-.91,0-1.443-.473-1.392-1.187a1.116,1.116,0,0,1,.938-1.024,4.241,4.241,0,0,1,.68-.052c7.5-.063,14.994-.028,22.492.008.168,0,.335.019.458-.135a12.471,12.471,0,0,1,3.156-2.766c-.009-.044-.016-.087-.024-.13h-2.472q-9.926-.007-19.851-.015a5.093,5.093,0,0,1-.681-.021,1.091,1.091,0,0,1-.006-2.171,5,5,0,0,1,.726-.044q7.809,0,15.617,0c.889,0,.865,0,.735-.865a6.31,6.31,0,0,1,5.841-7.346.632.632,0,0,0,.632-.39,9.588,9.588,0,0,1,1.043-1.754,3.882,3.882,0,0,1,2.92-1.645,37.293,37.293,0,0,1,5.364.034,3.526,3.526,0,0,1,2.486,1.569,18.134,18.134,0,0,1,1.181,1.923.471.471,0,0,0,.432.25,6.232,6.232,0,0,1,2.9.971,6.5,6.5,0,0,1,2.251,8.545,3.554,3.554,0,0,1-.428.7c-.174.206-.1.333.046.487a14.6,14.6,0,0,1,2.865,4.556,16.206,16.206,0,0,1-1.47,15.839c-3.062,4.8-7.59,7.124-13.25,7.276a15.606,15.606,0,0,1-5.591-.955,4.176,4.176,0,0,0-1.422-.241q-7.877.018-15.754.006c-.2,0-.395,0-.592-.021a1.142,1.142,0,0,1-1.1-1.162,1.081,1.081,0,0,1,1.147-1.048c1.5-.019,3.005-.016,4.508-.024.334,0,.667-.013,1-.019.424.01.848.029,1.272.03q5.052.005,10.106,0h2.972a11.49,11.49,0,0,1-4.46-2.324,2.5,2.5,0,0,0-2.18-.807,2.464,2.464,0,0,1-.454,0l-6.961.011a6.5,6.5,0,0,0-1.582-.062c-.726-.016-1.454,0-2.18-.018s-1.179-.313-1.317-.877.115-1.023.758-1.394a1.522,1.522,0,0,1,.583-.064q4.941,0,9.881,0c.131,0,.3.058.381-.067s-.077-.242-.143-.352a9.838,9.838,0,0,1-1.053-2.114c-.147-.465-.4-.575-.856-.572-4.068.018-8.135.011-12.2.011l-12.419-.017a6.368,6.368,0,0,1-.681-.013,1.161,1.161,0,0,1-1.029-1.094,1.047,1.047,0,0,1,.915-1.12,3.328,3.328,0,0,1,.633-.041q2.8-.009,5.594-.013c.939,0,1.879.013,2.819.013q7.92,0,15.839,0c.592,0,.609,0,.528-.607a12.04,12.04,0,0,1-.089-1.725c.007-.707,0-.707-.726-.708l-15.975-.006c-.712,0-1.425-.007-2.137-.011a5.541,5.541,0,0,0-1.09-.053c-1.669,0-3.339,0-5.008-.01a1.213,1.213,0,0,1-1.189-.589,1.109,1.109,0,0,1,.864-1.67,8.061,8.061,0,0,1,.955-.033q7.239-.015,14.478-.024,3.823.011,7.644.021c1.38,0,2.761-.01,4.141-.01.264,0,.528-.018.412.415a11.535,11.535,0,0,0,17.915,12.422,11.619,11.619,0,0,0,4.328-6.328,11.063,11.063,0,0,0-.175-6.489.868.868,0,0,1-.053-.571c.411-.888.834-1.772,1.23-2.669.188-.425.152-.46-.317-.384a7.573,7.573,0,0,0-1.863.681c-.35.08-.435-.219-.571-.418a11.463,11.463,0,0,0-5.75-4.474A11.115,11.115,0,0,0,186.8,93.922a.534.534,0,0,1-.513.3c-.44-.009-.879,0-1.319,0Q178.9,94.24,172.828,94.245Zm23.24-17.586v0c-.728,0-1.456-.008-2.184,0a2.352,2.352,0,0,0-1.011.192c-.782.377-1.076,1.138-1.487,1.814-.137.227-.081.344.135.462a7.7,7.7,0,0,1,1.249.824,6.038,6.038,0,0,1,2.025,3.45c.032.14.033.253.232.248.576-.013,1.153,0,1.728-.007a.311.311,0,0,0,.353-.264,8.378,8.378,0,0,1,.707-1.839,5.285,5.285,0,0,1,1.942-2.115c1.012-.606,1.013-.578.406-1.614a2.163,2.163,0,0,0-2.049-1.161C197.432,76.67,196.749,76.659,196.068,76.659Zm10.956,8.09a3.786,3.786,0,0,0-.146-1.093,4.186,4.186,0,0,0-4.783-3.068,3.411,3.411,0,0,0-2.935,2.42c-.23.773-.285.706.553.885a16.239,16.239,0,0,1,6.326,3.236c.327.247.358.159.481-.109A5.139,5.139,0,0,0,207.024,84.749Zm-18.343-4.183a3.674,3.674,0,0,0-2.58,1.294,4.4,4.4,0,0,0-.847,4.5c.034.112.066.283.193.283.437,0,.906.217,1.3-.153a2.413,2.413,0,0,1,.411-.347,18.46,18.46,0,0,1,5.492-2.258c.345-.072.321-.189.256-.441A4.085,4.085,0,0,0,188.682,80.566Zm1.969,6.268c.165.022.233.038.3.039,1.273.023,2.547.078,3.82,0a14.262,14.262,0,0,1,3.305.091,12.821,12.821,0,0,1,8,4.616c.328.4.633.668,1.165.573.128-.023.306.074.377-.06.08-.151-.079-.278-.158-.4a13.322,13.322,0,0,0-2.636-2.932,13.61,13.61,0,0,0-10.933-2.98A9.909,9.909,0,0,0,190.651,86.833Zm5.434,27.812a1.448,1.448,0,0,0,.847.214,10.859,10.859,0,0,0,3.636-.7,12.758,12.758,0,0,0,5.9-4.175,1.6,1.6,0,0,0,.369-.759c-.148.114-.225.163-.289.225-.186.179-.37.358-.548.545a14.666,14.666,0,0,1-8.681,4.364A2.739,2.739,0,0,0,196.085,114.646Zm13.5-10.958c.963-2.259.6-7.569-.516-8.679a1.8,1.8,0,0,0-.171,1.958,8.086,8.086,0,0,1,.568,2.377A28.685,28.685,0,0,1,209.587,103.688Z" transform="translate(0 0)"/><path class="b" d="M320.121,198.008a.867.867,0,0,0,.052.573,11.053,11.053,0,0,1,.175,6.489,11.61,11.61,0,0,1-4.328,6.328,11.59,11.59,0,0,1-17.915-12.422c.117-.434-.148-.415-.412-.415-1.38,0-2.761.012-4.141.01q-3.823-.005-7.644-.021c-.192-.306-.551-.453-.7-.817a1.775,1.775,0,0,1,.572-2.037l12.144-.016c.44,0,.879-.013,1.319,0a.533.533,0,0,0,.513-.3,11.115,11.115,0,0,1,13.088-4.625,11.463,11.463,0,0,1,5.75,4.474c.136.2.221.5.57.418a3.5,3.5,0,0,1-.533.415c-.807.411-1.624.8-2.437,1.2-1.856.9-3.724,1.787-5.518,2.816a1.554,1.554,0,0,1,.009-.226c.349-1.916.708-3.83,1.042-5.748a3.12,3.12,0,0,0,.1-1.392,24.256,24.256,0,0,0-2.448,2.449,1.051,1.051,0,0,0-.233.534c-.2,1.052-.386,2.105-.572,3.159-.09.508-.158,1-.741,1.24a1.646,1.646,0,0,0-.658.547,2.506,2.506,0,0,0-.2,2.7,2.4,2.4,0,0,0,2.38,1.194,2.474,2.474,0,0,0,2.1-1.713,1.016,1.016,0,0,1,.594-.731q3.58-1.838,7.158-3.684c.12.266-.1.559.094.9C319.592,198.841,319.856,198.425,320.121,198.008Zm-10.347,13.274c0-.124-.006-.2-.012-.275a.805.805,0,0,0-.842-.81.787.787,0,0,0-.7.848c-.006.165-.011.332,0,.5.032.51.3.831.706.849a.814.814,0,0,0,.816-.753A3.224,3.224,0,0,0,309.775,211.282Zm-9.719-8.322c.09-.017.239-.041.386-.072a.738.738,0,0,0,.655-.7.794.794,0,0,0-.649-.817,1.511,1.511,0,0,0-.979.055.762.762,0,0,0-.407,1.087A1.046,1.046,0,0,0,300.056,202.96Zm9.705-10.319c.006-.8-.2-1.116-.732-1.125-.473-.008-.782.362-.8.957-.024.766.222,1.183.719,1.216C309.485,193.724,309.755,193.378,309.761,192.641Zm8.625,10.274c.066,0,.171-.008.276-.024a.827.827,0,0,0,.753-.773.8.8,0,0,0-.695-.777,1.742,1.742,0,0,0-.983.089.653.653,0,0,0-.445.575C317.227,202.6,317.592,202.923,318.387,202.915Z" transform="translate(-112.958 -101.45)"/><path class="a" d="M431.252,446.275c-.652,0-1.306.008-1.958,0a1.169,1.169,0,0,1-1.318-.944c-.074-.21-.125-.412-.414-.362-.344.06-.793-.21-.995.293a1.555,1.555,0,0,1-1.574,1.017,9.567,9.567,0,0,1-3.027-.174.7.7,0,0,0-.4.052,6.71,6.71,0,0,1-3.331-.039.716.716,0,0,0-.445-.018,6.862,6.862,0,0,1-2.884.143,1.106,1.106,0,0,1-1.006-.923.4.4,0,0,0-.509-.36,2.641,2.641,0,0,1-.5.022c-.254-.019-.372.095-.456.327a1.4,1.4,0,0,1-1.308.963c-.8.061-1.607.013-2.411-.006a1.339,1.339,0,0,1-1.054-1.874c.963-1.667,1.867-3.368,2.8-5.052.353-.636.742-1.254,1.082-1.9a2.025,2.025,0,0,1,1.911-1.158c.486,0,.972,0,1.456,0a3.533,3.533,0,0,1,1.918.572,1.874,1.874,0,0,0,1.964.07,5.291,5.291,0,0,1,5.571.089,1.758,1.758,0,0,0,1.756-.128,2.038,2.038,0,0,1,1.345-.583,13.506,13.506,0,0,1,2.407.028,1.525,1.525,0,0,1,.9.384.7.7,0,0,0,.9.075,7.208,7.208,0,0,1,5.2-.3c3.258.885,3.444,4.646,1.705,6.52a4.866,4.866,0,0,1-3.11,1.54c-.326.038-.5.13-.573.49a1.462,1.462,0,0,1-1.517,1.24c-.713.019-1.426,0-2.14,0A.016.016,0,0,1,431.252,446.275Zm-7.785-1.65a8.557,8.557,0,0,1,.992.006,1.1,1.1,0,0,0,1.382-.762.553.553,0,0,1,.517-.443c.667,0,1.335,0,2,0a.323.323,0,0,1,.349.279c.09.3-.036.72.279.862a2.633,2.633,0,0,0,.94.05c.121,0,.244-.01.363,0,.362.039.491-.072.391-.46-.138-.542-.22-1.1-.327-1.65-.254-1.308-.515-2.615-.758-3.927-.073-.4-.251-.568-.672-.532a12.17,12.17,0,0,1-1.228,0,.609.609,0,0,0-.576.336c-.534.809-.994,1.662-1.484,2.495C424.928,442.1,424.227,443.317,423.467,444.626Zm-9.386-6.565c-.706-.236-1.1.22-1.475.917-.9,1.686-1.878,3.329-2.82,4.991-.1.18-.33.372-.242.556.1.2.384.059.584.092a1.35,1.35,0,0,0,1.735-.935c.064-.2.238-.255.436-.255.652,0,1.3,0,1.958,0a.364.364,0,0,1,.4.328c.232.887.241.884,1.162.876.152,0,.3-.01.455,0,.346.025.4-.125.335-.441q-.548-2.511-1.069-5.028C415.316,438.058,415.321,438.058,414.081,438.06Zm7.307-.125a3.049,3.049,0,0,0-2.608,1.1,1.787,1.787,0,0,0,.958,2.933c.381.1.762.2,1.138.315.194.058.378.149.381.392s-.182.335-.364.415a2.376,2.376,0,0,1-1.812-.1c-.3-.1-.534-.508-.821-.386s-.448.473-.666.724c-.01.011-.017.026-.027.036-.3.367-.288.5.128.732a4.674,4.674,0,0,0,3.861.38,2.15,2.15,0,0,0,1-.679,1.777,1.777,0,0,0-.773-3.027c-.4-.121-.807-.238-1.216-.334-.255-.06-.406-.177-.415-.451a.472.472,0,0,1,.4-.526,1.707,1.707,0,0,1,1.206.041c.684.42,1.1.176,1.476-.4a.322.322,0,0,1,.067-.061c.306-.264.247-.477-.079-.674A3.449,3.449,0,0,0,421.388,437.935Zm13.177.142v-.012a9.378,9.378,0,0,1-1.046-.009c-.4-.045-.528.151-.6.494-.36,1.753-.735,3.5-1.1,5.253-.17.825-.16.827.683.824s.844,0,1.058-.821c.222-.848.222-.858,1.087-.878a3.683,3.683,0,0,0,2.417-.771,2.563,2.563,0,0,0,.764-2.687,2.124,2.124,0,0,0-2.039-1.39C435.385,438.055,434.975,438.077,434.565,438.077Z" transform="translate(-220.525 -317.59)"/><path class="a" d="M601.411,138.268c.4-4.726.56-9.46.709-14.192.006-.2-.011-.4.013-.592a.608.608,0,0,0-.376-.679,4.727,4.727,0,0,1-2.5-3.943,14.82,14.82,0,0,1,1.914-8.752A5.689,5.689,0,0,1,603.134,108a2.665,2.665,0,0,1,3.3.413,10.106,10.106,0,0,1,2.776,5.015,15.5,15.5,0,0,1,.567,4.85,4.93,4.93,0,0,1-2.749,4.583c-.276.138-.267.323-.261.551q.109,3.937.219,7.875.126,4.415.256,8.829c.018.622.06,1.245.044,1.866a2.981,2.981,0,0,1-4.231,2.739,2.788,2.788,0,0,1-1.64-2.587C601.386,140.848,601.411,139.558,601.411,138.268Zm1.3-27.314-.148-.027c-.1.2-.2.387-.289.588a15.658,15.658,0,0,0-1.234,6.477,3.453,3.453,0,0,0,2.585,3.621c.219.075.3.169.283.379-.006.106,0,.213,0,.318q-.219,9.216-.616,18.425a5.647,5.647,0,0,0,.043,1.453,1.019,1.019,0,0,0,.882.859,1.141,1.141,0,0,0,1.11-.646,1.474,1.474,0,0,0,.123-.666c-.016-1.108-.023-2.216-.047-3.323q-.18-8.1-.376-16.2c-.011-.434.13-.636.543-.72a3.253,3.253,0,0,0,2.41-3.068,15.676,15.676,0,0,0-.818-5.779,8.358,8.358,0,0,0-.827-1.824c-.023.391-.053.675-.053.96,0,1.32.021,2.641.028,3.961,0,.79.015,1.579,0,2.367a.642.642,0,0,1-.945.615c-.366-.147-.379-.466-.379-.8q0-3.87,0-7.74c0-.477-.188-.7-.544-.677-.421.026-.447.338-.447.658q0,2.892.008,5.782c0,.729.013,1.458-.006,2.185a.623.623,0,0,1-.907.6c-.394-.135-.372-.487-.372-.8-.006-1.669,0-3.339.006-5.008Q602.709,111.944,602.708,110.954Z" transform="translate(-388.93 -28.956)"/><path class="a" d="M218.956,447.035c-1.335,0-2.67.016-4-.006-1.1-.018-1.585-.706-1.346-1.787.466-2.114.924-4.228,1.35-6.35.245-1.227.8-1.871,2.152-1.86,1.606.013,3.213-.077,4.819.049a1.878,1.878,0,0,1,1.1.551.906.906,0,0,0,1.141.024,2.089,2.089,0,0,1,1.518-.618,6.653,6.653,0,0,1,3,.287.6.6,0,0,0,.522-.074,3.207,3.207,0,0,1,1.245-.231c1.653-.01,3.308-.017,4.961,0a2.046,2.046,0,0,1,1.943.941,2.675,2.675,0,0,1-2.035,3.825c-.424.015-.526.19-.592.537-.205,1.087-.429,2.169-.647,3.254a1.535,1.535,0,0,1-1.711,1.456q-2.412.022-4.825,0c-.955-.009-1.233-.213-1.53-1.1a.275.275,0,0,0-.319-.228c-.182.006-.364.015-.545,0a.544.544,0,0,0-.61.4,1.45,1.45,0,0,1-1.444.915C221.717,447.042,220.336,447.035,218.956,447.035Zm2.563-1.654a5.706,5.706,0,0,1,.93.009,1.14,1.14,0,0,0,1.453-.844.542.542,0,0,1,.632-.373c.469.023.94,0,1.41.008.827,0,.833,0,1.04.82.067.264.165.409.477.383a6.957,6.957,0,0,1,1.091,0c.3.021.406-.062.339-.373q-.627-2.93-1.234-5.864c-.052-.254-.152-.357-.418-.349-.515.017-1.031.015-1.548,0a.546.546,0,0,0-.547.311c-.519.89-1.065,1.766-1.574,2.661C222.9,442.952,222.142,444.088,221.519,445.38Zm-3.526-4c.044-.251.089-.429.1-.609.028-.4.227-.521.62-.5.544.035,1.092,0,1.637.009,1.077.006,1.077.007,1.3-1.056.006-.029.015-.059.022-.089.062-.224.01-.333-.254-.332q-2.206.011-4.413,0c-.221,0-.3.078-.347.3q-.632,2.953-1.3,5.9c-.078.336.028.377.321.372,1.2-.017,2.4-.019,3.594-.017s1.171,0,1.368-1.166c.045-.267-.023-.3-.255-.3-.864,0-1.728-.023-2.592-.041-.117,0-.262.046-.345-.062-.172-.222.234-1.013.528-1.019.576-.012,1.153-.006,1.728,0,1.051,0,1.036,0,1.226-1.028.057-.312-.032-.364-.309-.361C219.757,441.388,218.894,441.38,217.993,441.38Zm14.949-2.573v0h-1.91c-1.153.006-1.142.008-1.383,1.137-.062.289.024.339.279.333.47-.01.94.017,1.409,0,.278-.009.37.05.3.353-.282,1.286-.539,2.576-.808,3.865-.182.875-.185.873.711.883.926.01.917.007,1.092-.906.239-1.246.5-2.489.737-3.736.064-.334.211-.482.571-.457.437.03.878,0,1.318.01a.34.34,0,0,0,.4-.313c.064-.27-.021-.583.1-.8.239-.429-.036-.366-.277-.367C234.64,438.805,233.791,438.808,232.942,438.808Z" transform="translate(-50.111 -318.347)"/><path class="b" d="M209.706,279.1c.712,0,1.425.011,2.137.011l15.975.006c.73,0,.732,0,.726.708a12.229,12.229,0,0,0,.089,1.725c.08.6.064.607-.528.607q-7.92,0-15.839,0c-.94,0-1.88-.009-2.819-.013-.032-.032-.061-.066-.095-.095A1.648,1.648,0,0,1,209.706,279.1Z" transform="translate(-45.762 -179.621)"/><path class="b" d="M267.981,322.971c4.068,0,8.135.006,12.2-.011.459,0,.709.107.856.572a9.84,9.84,0,0,0,1.053,2.113c.067.109.231.213.143.352s-.25.067-.381.067q-4.941,0-9.881,0a1.527,1.527,0,0,0-.583.064,14.047,14.047,0,0,0-2.444-.1,1.622,1.622,0,0,1-1.667-1.867C267.33,323.657,267.709,323.345,267.981,322.971Z" transform="translate(-97.311 -218.153)"/><path class="b" d="M328.849,368.037l6.961-.011a2.578,2.578,0,0,0,.454,0,2.507,2.507,0,0,1,2.18.807,11.458,11.458,0,0,0,4.46,2.324h-2.972q-5.052,0-10.106,0c-.424,0-.848-.019-1.272-.03a4.552,4.552,0,0,1-.345-.358C327.434,369.753,327.654,368.822,328.849,368.037Z" transform="translate(-150.448 -257.709)"/><path class="c" d="M514.479,127.2a5.154,5.154,0,0,1-.5,2.27c-.123.268-.155.356-.481.109a16.239,16.239,0,0,0-6.326-3.236c-.838-.18-.782-.113-.553-.885a3.41,3.41,0,0,1,2.935-2.42,4.185,4.185,0,0,1,4.783,3.068A3.823,3.823,0,0,1,514.479,127.2Z" transform="translate(-307.455 -42.448)"/><path class="d" d="M394.689,123.385a4.087,4.087,0,0,1,4.228,2.873c.064.251.089.369-.256.441a18.429,18.429,0,0,0-5.492,2.258,2.413,2.413,0,0,0-.411.347c-.4.37-.865.151-1.3.153-.128,0-.159-.171-.193-.283a4.4,4.4,0,0,1,.847-4.5A3.666,3.666,0,0,1,394.689,123.385Z" transform="translate(-206.008 -42.819)"/><path class="e" d="M437.61,166.208a9.972,9.972,0,0,1,3.243-1.054,13.61,13.61,0,0,1,10.933,2.98,13.293,13.293,0,0,1,2.636,2.932c.079.118.238.245.158.4-.07.134-.249.036-.377.06-.531.1-.836-.175-1.165-.573a12.827,12.827,0,0,0-8-4.616,14.261,14.261,0,0,0-3.305-.091c-1.273.084-2.547.028-3.82,0C437.844,166.246,437.775,166.23,437.61,166.208Z" transform="translate(-246.959 -79.375)"/><path class="f" d="M495.85,234.815c1.793-1.029,3.661-1.911,5.518-2.816.813-.4,1.631-.785,2.437-1.2a3.446,3.446,0,0,0,.533-.415,7.593,7.593,0,0,1,1.863-.683c.468-.077.5-.043.317.384-.4.9-.82,1.782-1.23,2.669l-.819,1.285c-.19-.336.028-.629-.094-.9.126-.357.261-.711.377-1.071.055-.171.112-.425-.17-.4a4.75,4.75,0,0,0-1.883.181c-2.047,1.02-4.1,2.02-6.137,3.066C496.235,235.09,496.055,235.071,495.85,234.815Z" transform="translate(-298.125 -136.198)"/><path class="g" d="M482.35,364.725a2.761,2.761,0,0,1,1.229-.29,14.655,14.655,0,0,0,8.681-4.364c.177-.187.362-.367.548-.545.064-.062.141-.111.289-.225a1.6,1.6,0,0,1-.369.759,12.773,12.773,0,0,1-5.9,4.175,10.861,10.861,0,0,1-3.636.7A1.436,1.436,0,0,1,482.35,364.725Z" transform="translate(-286.265 -250.079)"/><path class="h" d="M587,250.97a28.4,28.4,0,0,0-.12-4.345,8.013,8.013,0,0,0-.569-2.377,1.8,1.8,0,0,1,.171-1.958C587.6,243.4,587.967,248.711,587,250.97Z" transform="translate(-377.417 -147.282)"/><path class="a" d="M466.891,218.726c.207.256.385.275.714.106,2.033-1.046,4.09-2.046,6.137-3.066a4.707,4.707,0,0,1,1.883-.181c.282-.022.225.233.17.4-.115.361-.249.714-.376,1.071q-3.578,1.842-7.158,3.684a1.016,1.016,0,0,0-.594.731,2.473,2.473,0,0,1-2.1,1.713,2.4,2.4,0,0,1-2.38-1.194,2.506,2.506,0,0,1,.2-2.7,1.644,1.644,0,0,1,.658-.547c.583-.238.651-.732.741-1.24.186-1.054.373-2.107.572-3.159a1.047,1.047,0,0,1,.233-.534,24.248,24.248,0,0,1,2.448-2.449,3.121,3.121,0,0,1-.1,1.392c-.334,1.918-.694,3.832-1.042,5.748A1.4,1.4,0,0,0,466.891,218.726Z" transform="translate(-269.166 -120.109)"/><path class="a" d="M477.09,356.477a2.976,2.976,0,0,1-.032.356.815.815,0,0,1-.816.753c-.4-.017-.674-.339-.706-.849a4.843,4.843,0,0,1,0-.5.788.788,0,0,1,.7-.848.8.8,0,0,1,.842.81C477.083,356.278,477.084,356.353,477.09,356.477Z" transform="translate(-280.274 -246.645)"/><path class="a" d="M400.465,283.873a1.044,1.044,0,0,1-.994-.453.761.761,0,0,1,.407-1.087,1.511,1.511,0,0,1,.979-.055.8.8,0,0,1,.649.817.739.739,0,0,1-.655.7C400.7,283.832,400.556,283.856,400.465,283.873Z" transform="translate(-213.368 -182.363)"/><path class="a" d="M477.152,202.734c-.006.736-.276,1.082-.815,1.048-.5-.033-.743-.449-.719-1.216.019-.6.328-.966.8-.957C476.952,201.617,477.16,201.934,477.152,202.734Z" transform="translate(-280.349 -111.542)"/><path class="a" d="M551.314,283.829c-.794.007-1.16-.315-1.092-.91a.65.65,0,0,1,.445-.574,1.742,1.742,0,0,1,.983-.089.8.8,0,0,1,.695.777.827.827,0,0,1-.753.772C551.485,283.821,551.378,283.823,551.314,283.829Z" transform="translate(-345.886 -182.364)"/><path class="b" d="M538.8,458.362c.76-1.308,1.461-2.528,2.175-3.74.491-.835.95-1.686,1.484-2.495a.61.61,0,0,1,.576-.336,11.493,11.493,0,0,0,1.228,0c.42-.036.6.136.672.532.242,1.311.5,2.618.758,3.927.107.55.188,1.107.327,1.649.1.389-.029.5-.391.46-.12-.013-.243,0-.363,0a2.578,2.578,0,0,1-.94-.05c-.316-.141-.19-.567-.279-.862a.325.325,0,0,0-.349-.279c-.667.006-1.335.008-2,0a.553.553,0,0,0-.517.443,1.1,1.1,0,0,1-1.382.762A8.369,8.369,0,0,0,538.8,458.362Zm4.57-4.491-.118-.011c-.174.294-.352.587-.522.884s-.543.677-.38.9c.174.238.678.1,1.039.118a.46.46,0,0,0,.091-.006.2.2,0,0,0,.2-.254C543.578,454.956,543.472,454.414,543.37,453.871Z" transform="translate(-335.858 -331.326)"/><path class="b" d="M428.568,451.457c1.24,0,1.235,0,1.465,1.1q.525,2.516,1.069,5.028c.069.316.011.466-.335.441-.151-.011-.3,0-.456,0-.922.009-.929.011-1.162-.876a.364.364,0,0,0-.4-.328c-.652.007-1.3.006-1.958,0-.2,0-.372.051-.436.255a1.349,1.349,0,0,1-1.735.935c-.2-.033-.485.112-.584-.092-.09-.185.138-.377.242-.556.943-1.663,1.922-3.306,2.82-4.991C427.467,451.676,427.863,451.221,428.568,451.457Zm-.234,1.953c-.344.651-.63,1.193-.916,1.736a.154.154,0,0,0,.013.2,4,4,0,0,0,1.251.011.245.245,0,0,0,.052-.163A7.833,7.833,0,0,0,428.334,453.41Z" transform="translate(-235.012 -330.986)"/><path class="b" d="M492.568,450.88a3.466,3.466,0,0,1,1.839.428c.324.2.385.411.079.674a.321.321,0,0,0-.067.061c-.373.573-.792.818-1.476.4a1.707,1.707,0,0,0-1.206-.041.472.472,0,0,0-.4.526c.01.275.159.392.415.451.409.095.814.211,1.216.334a1.778,1.778,0,0,1,.773,3.027,2.147,2.147,0,0,1-1,.679,4.674,4.674,0,0,1-3.861-.38c-.415-.238-.429-.366-.128-.732.01-.012.017-.026.027-.036.217-.251.391-.609.666-.724s.525.283.821.386a2.376,2.376,0,0,0,1.812.1c.182-.08.368-.174.364-.415s-.187-.334-.381-.392c-.378-.112-.758-.216-1.138-.315a1.787,1.787,0,0,1-.958-2.933A3.049,3.049,0,0,1,492.568,450.88Z" transform="translate(-291.704 -330.535)"/><path class="b" d="M609.713,451.854c.409,0,.82-.022,1.228,0a2.123,2.123,0,0,1,2.039,1.39,2.56,2.56,0,0,1-.764,2.687,3.684,3.684,0,0,1-2.417.771c-.865.021-.865.03-1.087.878-.214.817-.214.817-1.058.821s-.853,0-.683-.824c.361-1.753.737-3.5,1.1-5.253.07-.345.2-.539.6-.494a9.378,9.378,0,0,0,1.046.009Zm.162,3.406a5.731,5.731,0,0,0,.63-.077,1.066,1.066,0,0,0,.836-1.094c-.04-.526-.334-.751-1.023-.787-.668-.034-.668-.034-.837.736-.049.221-.112.441-.143.666C609.249,455.31,609.261,455.316,609.875,455.26Z" transform="translate(-395.673 -331.367)"/><path class="b" d="M615.9,124.706c0,.66,0,1.319,0,1.979,0,1.669-.012,3.339-.006,5.008,0,.31-.022.662.372.8a.623.623,0,0,0,.907-.6c.019-.728.007-1.456.006-2.185q0-2.892-.008-5.782c0-.319.025-.632.447-.658.356-.022.543.2.544.677q.011,3.87,0,7.74c0,.332.013.651.379.8a.642.642,0,0,0,.945-.615c.017-.788.007-1.578,0-2.367-.007-1.32-.023-2.641-.028-3.961,0-.284.03-.567.054-.96a8.361,8.361,0,0,1,.827,1.824,15.674,15.674,0,0,1,.817,5.779,3.252,3.252,0,0,1-2.41,3.068c-.413.085-.554.288-.543.72q.206,8.1.377,16.2c.024,1.108.032,2.216.047,3.323a1.441,1.441,0,0,1-.123.666,1.142,1.142,0,0,1-1.11.646,1.022,1.022,0,0,1-.882-.859,5.649,5.649,0,0,1-.042-1.453q.383-9.21.616-18.425c0-.106,0-.213,0-.318.012-.209-.064-.3-.283-.379a3.452,3.452,0,0,1-2.585-3.621,15.654,15.654,0,0,1,1.234-6.477c.086-.2.192-.392.289-.588C615.8,124.688,615.853,124.7,615.9,124.706Z" transform="translate(-402.125 -42.708)"/><path class="i" d="M279.19,458.329c.623-1.292,1.38-2.428,2.053-3.61.51-.9,1.056-1.771,1.574-2.661a.548.548,0,0,1,.547-.311c.515.016,1.031.018,1.548,0,.266-.008.366.095.418.349q.6,2.935,1.234,5.864c.067.311-.04.394-.339.373a7.1,7.1,0,0,0-1.091,0c-.311.027-.411-.119-.477-.383-.206-.815-.213-.815-1.04-.82-.47,0-.941.016-1.41-.008a.543.543,0,0,0-.632.373,1.139,1.139,0,0,1-1.453.844A5.869,5.869,0,0,0,279.19,458.329Zm3.447-2.624c.482,0,.887-.006,1.292,0,.209,0,.262-.084.226-.276a13.7,13.7,0,0,0-.386-1.8Z" transform="translate(-107.782 -331.296)"/><path class="i" d="M230.908,454.394c.9,0,1.765.007,2.627,0,.277,0,.366.049.309.361-.189,1.029-.174,1.03-1.226,1.028-.576,0-1.153-.007-1.728,0-.294.006-.7.8-.528,1.019.084.107.228.058.345.062.864.019,1.728.036,2.592.041.232,0,.3.039.255.3-.2,1.171-.186,1.169-1.368,1.166-1.2,0-2.4,0-3.594.017-.294,0-.4-.035-.321-.372q.676-2.944,1.3-5.9c.049-.226.125-.3.347-.3,1.471.006,2.942.01,4.413,0,.264,0,.316.109.254.332-.009.029-.016.058-.022.089-.22,1.063-.22,1.062-1.3,1.056-.545,0-1.093.027-1.637-.008-.394-.026-.592.1-.619.5C231,453.965,230.95,454.142,230.908,454.394Z" transform="translate(-63.026 -331.361)"/><path class="i" d="M349.265,451.8c.849,0,1.7,0,2.546,0,.241,0,.516-.062.277.367-.12.216-.036.53-.1.8a.34.34,0,0,1-.4.313c-.438-.013-.881.021-1.318-.01-.358-.024-.507.123-.571.457-.238,1.246-.5,2.489-.737,3.736-.176.913-.168.916-1.092.906-.9-.008-.893-.008-.711-.883.27-1.289.526-2.58.808-3.865.067-.3-.027-.362-.3-.353-.469.016-.94-.011-1.409,0-.255,0-.341-.045-.279-.333.242-1.13.231-1.132,1.384-1.137h1.909S349.265,451.8,349.265,451.8Z" transform="translate(-166.434 -331.343)"/><path class="a" d="M568.75,468.9c.1.543.209,1.085.3,1.629a.2.2,0,0,1-.2.254.457.457,0,0,1-.091.006c-.361-.015-.865.12-1.039-.118s.211-.6.38-.9.347-.589.522-.884Z" transform="translate(-361.239 -346.357)"/><path class="a" d="M452.744,467.99a7.778,7.778,0,0,1,.4,1.789.242.242,0,0,1-.052.163,4.079,4.079,0,0,1-1.251-.011.154.154,0,0,1-.013-.2C452.112,469.182,452.4,468.641,452.744,467.99Z" transform="translate(-259.422 -345.567)"/><path class="a" d="M627.328,465.85c-.613.056-.624.05-.538-.556.033-.224.095-.443.143-.666.169-.77.169-.77.837-.736.69.035.983.261,1.023.787a1.068,1.068,0,0,1-.836,1.094A5.66,5.66,0,0,1,627.328,465.85Z" transform="translate(-413.126 -341.957)"/><path class="a" d="M307.57,469.343l1.132-2.073a13.756,13.756,0,0,1,.386,1.8c.035.192-.018.281-.226.276C308.458,469.337,308.052,469.343,307.57,469.343Z" transform="translate(-132.715 -344.934)"/></g></svg>