<?xml version="1.0" encoding="UTF-8"?>
<svg id="Layer_2" data-name="Layer 2" xmlns="http://www.w3.org/2000/svg" viewBox="0 0 458.75 83.99">
  <defs>
    <style>
      .cls-1 {
        fill: #ef3a41;
      }

      .cls-1, .cls-2, .cls-3 {
        stroke-width: 0px;
      }

      .cls-2 {
        fill: #46c0bc;
      }

      .cls-3 {
        fill: #0f1332;
      }
    </style>
  </defs>
  <g id="Layer_1-2" data-name="Layer 1">
    <g>
      <path class="cls-3" d="M389.35,83.41c-5.37,0-10.75.07-16.12-.02-6.3-.1-8.78-1.88-10.85-7.77-.61-1.73-1.03-3.39-3.41-2.98-2.83.49-6.53-1.73-8.19,2.41-2.36,5.91-7.06,8.38-12.96,8.37-8.32-.02-16.74,1.24-24.92-1.43-1.17-.38-2.21.17-3.28.43-9.17,2.25-18.31,2.04-27.42-.32-1.25-.32-2.45-.61-3.66-.15-7.79,2.91-15.82,1.64-23.74,1.18-4.43-.26-7.23-3.42-8.28-7.6-.64-2.53-1.86-3.23-4.19-2.96-1.36.16-2.75.28-4.11.18-2.09-.16-3.06.78-3.75,2.69-1.79,4.99-5.57,7.54-10.77,7.93-6.61.5-13.23.11-19.85-.05-5.78-.14-12.68-8.5-8.68-15.43,7.93-13.72,15.37-27.73,23.06-41.59,2.91-5.24,6.11-10.32,8.91-15.62,3.38-6.4,8.6-9.48,15.73-9.53,4-.03,8,.03,11.99-.04,5.79-.11,10.72,1.72,15.79,4.71,4.77,2.81,10.23,3.83,16.17.58,15.24-8.36,30.75-8.31,45.86.73,3.66,2.19,11.26,1.93,14.46-1.05,3.15-2.93,6.74-4.62,11.07-4.8,6.61-.28,13.22-.67,19.82.23,2.78.38,5.45,1.17,7.45,3.16,2.41,2.4,4.83,1.92,7.45.62,13.91-6.92,28.89-6.25,42.82-2.46,26.82,7.29,28.35,38.25,14.04,53.68-6.95,7.49-15.59,11.51-25.6,12.68-2.68.31-4.11,1.07-4.72,4.03-1.35,6.52-5.82,10.03-12.49,10.21-5.87.16-11.74.03-17.62.03,0,0,0-.02,0-.03ZM325.26,69.83c3.2,0,5.72-.26,8.17.05,5.43.71,9.42-.57,11.38-6.27.59-1.7,1.72-3.67,4.26-3.65,5.49.04,10.99.02,16.48-.03,1.66-.02,2.4.75,2.87,2.3.74,2.43-.3,5.93,2.3,7.1,2.2.98,5.13.34,7.74.41,1,.02,2.01-.08,2.99.03,2.98.32,4.04-.59,3.22-3.79-1.14-4.46-1.81-9.05-2.69-13.58-2.09-10.77-4.24-21.53-6.24-32.33-.6-3.26-2.07-4.68-5.53-4.38-3.34.29-6.74.09-10.11.04-2.19-.04-3.45.81-4.74,2.77-4.4,6.66-8.18,13.68-12.22,20.54-5.87,9.98-11.65,20.02-17.9,30.79ZM247.99,15.79c-5.81-1.94-9.07,1.81-12.14,7.55-7.4,13.88-15.46,27.41-23.22,41.09-.84,1.48-2.72,3.06-1.99,4.58.81,1.68,3.16.49,4.81.76,6.72,1.09,11.98-.52,14.28-7.7.53-1.67,1.96-2.1,3.59-2.1,5.37,0,10.74.02,16.12-.04,1.94-.02,2.83.79,3.33,2.7,1.91,7.3,1.98,7.28,9.57,7.21,1.25-.01,2.51-.08,3.75,0,2.85.21,3.32-1.03,2.76-3.63-3.01-13.78-5.92-27.59-8.8-41.39-1.89-9.06-1.84-9.07-12.06-9.04ZM308.15,14.75c-8.33.19-16.04,1.78-21.47,9.04-5.38,7.17-5.94,20.55,7.89,24.15,3.14.82,6.27,1.67,9.37,2.59,1.6.48,3.11,1.23,3.14,3.23.03,1.98-1.5,2.76-3,3.42-5.11,2.23-10.02.86-14.92-.86-2.44-.86-4.4-4.18-6.76-3.18-2.26.96-3.69,3.89-5.48,5.96-.08.09-.14.21-.22.3-2.48,3.02-2.37,4.08,1.05,6.03,10.11,5.78,20.74,6.56,31.79,3.13,3.34-1.04,6.07-3.02,8.26-5.59,7-8.2,6.6-21-6.36-24.92-3.31-1-6.64-1.96-10.01-2.75-2.1-.49-3.34-1.46-3.42-3.71-.08-2.37,1.11-3.88,3.29-4.33,3.33-.69,7.14-1.37,9.93.34,5.63,3.46,9.08,1.45,12.15-3.27.13-.2.36-.34.55-.5,2.52-2.17,2.03-3.93-.65-5.55-4.67-2.83-9.82-3.49-15.14-3.52ZM416.63,15.92s0-.07,0-.1c-2.87,0-5.77.25-8.61-.07-3.3-.37-4.35,1.24-4.93,4.07-2.96,14.43-6.05,28.83-9.03,43.25-1.4,6.79-1.32,6.81,5.62,6.78q6.95-.02,8.71-6.76c1.83-6.98,1.83-7.06,8.95-7.23,7.28-.18,14.14-1.46,19.9-6.35,6.21-5.27,8.79-14.25,6.29-22.12-2.1-6.61-8.26-10.9-16.79-11.44-3.36-.21-6.74-.03-10.11-.03Z"/>
      <path class="cls-3" d="M44.55,83.43c-10.99,0-21.98.13-32.97-.05-9.09-.15-13.05-5.81-11.08-14.71,3.84-17.4,7.61-34.81,11.11-52.28C13.62,6.3,18.19,1,29.32,1.09c13.22.11,26.45-.63,39.67.4,3.79.3,6.44,2.28,9.06,4.54,2.51,2.16,7.03,2.48,9.39.2,3.53-3.42,7.74-5.14,12.5-5.09,8.28.09,16.77-1.51,24.7,2.36,1.56.76,2.97-.04,4.3-.61,3.29-1.39,6.75-1.88,10.25-1.9,13.61-.08,27.23-.14,40.84,0,6.45.06,12.39,1.55,16,7.75,7.14,12.27-2.66,31-16.75,31.49-3.49.12-4.33,1.56-4.87,4.42-1.69,8.95-3.53,17.86-5.33,26.79-1.7,8.43-5.64,11.91-14.09,11.99-13.24.12-26.48.13-39.72.02-7.86-.07-10.15-1.75-12.6-9.03-.53-1.57-1.25-1.92-2.63-1.88-1.5.05-3,.12-4.49.04-2.53-.15-3.98.74-5.02,3.29-2.1,5.17-6.45,7.49-11.89,7.53-11.37.09-22.73.03-34.1.02ZM65.65,69.81c2.93,0,5.36-.34,7.66.07,6.06,1.06,10.03-1.03,11.96-6.95.8-2.47,2.64-3.2,5.2-3.07,3.86.19,7.74.04,11.61.07,6.81.04,6.86.04,8.56,6.75.55,2.17,1.36,3.37,3.93,3.15,2.97-.26,6-.18,8.98.03,2.46.17,3.34-.51,2.79-3.07-3.44-16.08-6.84-32.17-10.16-48.28-.43-2.09-1.25-2.94-3.44-2.87-4.24.14-8.49.12-12.74-.01-2.14-.07-3.44.73-4.5,2.56-4.27,7.33-8.77,14.54-12.96,21.91-5.54,9.73-11.76,19.09-16.9,29.72ZM36.62,36.88c.36-2.07.73-3.53.84-5.01.23-3.28,1.87-4.29,5.1-4.08,4.48.29,8.99.04,13.48.07q8.87.05,10.68-8.69c.05-.24.12-.49.18-.73.51-1.84.08-2.74-2.09-2.73-12.11.06-24.22.03-36.33-.03-1.82,0-2.46.64-2.86,2.5-3.47,16.21-7.02,32.41-10.73,48.56-.64,2.77.23,3.1,2.64,3.06,9.86-.14,19.73-.16,29.59-.14,9.74.02,9.64.04,11.26-9.6.37-2.2-.19-2.5-2.1-2.51-7.11-.04-14.23-.19-21.34-.34-.96-.02-2.16.38-2.84-.51-1.42-1.83,1.93-8.34,4.35-8.39,4.74-.1,9.49-.05,14.23-.04,8.65.03,8.53.01,10.09-8.46.47-2.57-.26-3-2.54-2.97-7.11.09-14.22.03-21.63.03ZM159.7,15.7v-.04c-4.74,0-9.48,0-14.22,0-.5,0-1,0-1.5,0-9.49.05-9.4.07-11.39,9.36-.51,2.38.2,2.79,2.3,2.74,3.87-.08,7.74.14,11.6.01,2.29-.07,3.05.41,2.51,2.91-2.32,10.59-4.44,21.21-6.65,31.82q-1.5,7.2,5.85,7.27c7.62.08,7.55.06,8.99-7.46,1.97-10.26,4.11-20.49,6.07-30.76.53-2.75,1.74-3.97,4.7-3.76,3.6.25,7.23-.03,10.85.08,1.95.06,2.84-.59,3.31-2.58.53-2.22-.17-4.8.83-6.58,1.97-3.53-.3-3.01-2.28-3.02-6.99-.02-13.97,0-20.96,0Z"/>
      <path class="cls-1" d="M325.26,69.83c6.26-10.77,12.03-20.81,17.9-30.79,4.04-6.87,7.82-13.88,12.22-20.54,1.29-1.96,2.56-2.81,4.74-2.77,3.37.06,6.76.26,10.11-.04,3.46-.3,4.92,1.12,5.53,4.38,1.99,10.79,4.15,21.55,6.24,32.33.88,4.53,1.55,9.11,2.69,13.58.82,3.2-.24,4.11-3.22,3.79-.99-.11-2,0-2.99-.03-2.61-.06-5.54.58-7.74-.41-2.6-1.16-1.56-4.67-2.3-7.1-.47-1.55-1.22-2.31-2.87-2.3-5.49.05-10.99.07-16.48.03-2.54-.02-3.67,1.95-4.26,3.65-1.96,5.7-5.96,6.98-11.38,6.27-2.44-.32-4.96-.05-8.17-.05ZM362.88,32.86c-.32-.03-.65-.06-.97-.09-1.44,2.42-2.9,4.83-4.3,7.28-1.39,2.44-4.47,5.57-3.13,7.4,1.43,1.96,5.58.85,8.55.97.25,0,.5-.01.75-.05,1.2-.18,1.82-.94,1.61-2.09-.79-4.48-1.67-8.94-2.51-13.41Z"/>
      <path class="cls-1" d="M247.99,15.79c10.21-.03,10.17-.02,12.06,9.04,2.88,13.81,5.79,27.61,8.8,41.39.57,2.6.09,3.84-2.76,3.63-1.24-.09-2.5-.02-3.75,0-7.59.07-7.65.09-9.57-7.21-.5-1.91-1.39-2.72-3.33-2.7-5.37.06-10.74.05-16.12.04-1.63,0-3.06.42-3.59,2.1-2.29,7.19-7.56,8.79-14.28,7.7-1.65-.27-3.99.92-4.81-.76-.74-1.52,1.14-3.1,1.99-4.58,7.76-13.69,15.82-27.22,23.22-41.09,3.07-5.75,6.33-9.5,12.14-7.55ZM246.06,31.86c-2.83,5.36-5.19,9.82-7.54,14.29-.29.55-.45,1.16.11,1.68.53.51,9.86.66,10.3.09.27-.35.49-.91.43-1.34-.64-4.63-1.26-9.28-3.3-14.73Z"/>
      <path class="cls-1" d="M308.15,14.75c5.33.03,10.47.69,15.14,3.52,2.67,1.62,3.17,3.38.65,5.55-.19.16-.42.3-.55.5-3.07,4.72-6.52,6.73-12.15,3.27-2.79-1.71-6.61-1.03-9.93-.34-2.18.45-3.37,1.96-3.29,4.33.08,2.26,1.31,3.23,3.42,3.71,3.37.78,6.7,1.74,10.01,2.75,12.95,3.92,13.36,16.72,6.36,24.92-2.2,2.57-4.92,4.56-8.26,5.59-11.05,3.43-21.68,2.65-31.79-3.13-3.42-1.96-3.53-3.01-1.05-6.03.08-.1.14-.21.22-.3,1.79-2.07,3.22-5.01,5.48-5.96,2.36-1,4.32,2.33,6.76,3.18,4.9,1.72,9.81,3.09,14.92.86,1.5-.66,3.03-1.43,3-3.42-.03-2-1.54-2.75-3.14-3.23-3.11-.92-6.24-1.78-9.37-2.59-13.83-3.6-13.26-16.98-7.89-24.15,5.44-7.26,13.14-8.84,21.47-9.04Z"/>
      <path class="cls-1" d="M416.63,15.92c3.37,0,6.75-.18,10.11.03,8.53.54,14.7,4.83,16.79,11.44,2.5,7.88-.07,16.85-6.29,22.12-5.76,4.89-12.63,6.17-19.9,6.35-7.12.17-7.12.25-8.95,7.23q-1.76,6.73-8.71,6.76c-6.94.02-7.02,0-5.62-6.78,2.97-14.43,6.07-28.82,9.03-43.25.58-2.84,1.63-4.44,4.93-4.07,2.84.32,5.74.07,8.61.07,0,.03,0,.07,0,.1ZM417.96,43.96c1.73-.2,3.5-.24,5.19-.63,4.29-1.01,7.19-4.91,6.88-9.01-.33-4.33-2.75-6.18-8.42-6.48q-5.5-.28-6.89,6.06c-.4,1.82-.92,3.63-1.18,5.48-.72,4.99-.63,5.05,4.43,4.58Z"/>
      <path class="cls-2" d="M65.65,69.81c5.13-10.64,11.36-19.99,16.9-29.72,4.2-7.37,8.69-14.58,12.96-21.91,1.07-1.83,2.37-2.63,4.5-2.56,4.24.13,8.49.15,12.74.01,2.19-.07,3.01.78,3.44,2.87,3.31,16.11,6.72,32.2,10.16,48.28.55,2.56-.33,3.24-2.79,3.07-2.98-.2-6.01-.29-8.98-.03-2.56.22-3.38-.98-3.93-3.15-1.7-6.71-1.75-6.71-8.56-6.75-3.87-.02-7.75.13-11.61-.07-2.56-.13-4.4.61-5.2,3.07-1.93,5.92-5.89,8.01-11.96,6.95-2.3-.4-4.73-.07-7.66-.07ZM94.04,48.21c3.97,0,7.3-.05,10.64.02,1.72.04,2.16-.69,1.86-2.27-.89-4.79-1.51-9.63-3.18-14.82-3.17,5.81-6.07,11.12-9.32,17.07Z"/>
      <path class="cls-2" d="M36.62,36.88c7.42,0,14.53.06,21.63-.03,2.28-.03,3.01.4,2.54,2.97-1.56,8.47-1.43,8.48-10.09,8.46-4.74-.01-9.49-.06-14.23.04-2.42.05-5.77,6.56-4.35,8.39.69.88,1.88.48,2.84.51,7.11.16,14.23.3,21.34.34,1.91.01,2.47.32,2.1,2.51-1.63,9.64-1.53,9.62-11.26,9.6-9.86-.02-19.73,0-29.59.14-2.42.04-3.28-.29-2.64-3.06,3.71-16.16,7.27-32.35,10.73-48.56.4-1.86,1.03-2.51,2.86-2.5,12.11.05,24.22.08,36.33.03,2.17,0,2.6.9,2.09,2.73-.07.24-.13.48-.18.73q-1.81,8.75-10.68,8.69c-4.49-.02-9,.22-13.48-.07-3.24-.21-4.87.8-5.1,4.08-.1,1.48-.48,2.94-.84,5.01Z"/>
      <path class="cls-2" d="M159.7,15.7c6.99,0,13.97-.01,20.96,0,1.98,0,4.25-.51,2.28,3.02-.99,1.78-.3,4.36-.83,6.58-.47,1.99-1.36,2.64-3.31,2.58-3.61-.11-7.25.17-10.85-.08-2.95-.2-4.17,1.01-4.7,3.76-1.96,10.26-4.09,20.49-6.07,30.76-1.45,7.52-1.38,7.54-8.99,7.46q-7.37-.07-5.85-7.27c2.22-10.61,4.33-21.24,6.65-31.82.55-2.5-.22-2.98-2.51-2.91-3.86.13-7.74-.09-11.6-.01-2.1.04-2.81-.37-2.3-2.74,1.99-9.3,1.9-9.32,11.39-9.36.5,0,1,0,1.5,0,4.74,0,9.48,0,14.22,0v.04Z"/>
      <path class="cls-3" d="M362.88,32.86c.84,4.47,1.72,8.93,2.51,13.41.2,1.14-.41,1.91-1.61,2.09-.25.04-.5.06-.75.05-2.97-.12-7.12.99-8.55-.97-1.34-1.84,1.74-4.96,3.13-7.4,1.39-2.45,2.86-4.85,4.3-7.28.32.03.65.06.97.09Z"/>
      <path class="cls-3" d="M246.06,31.86c2.04,5.45,2.66,10.1,3.3,14.73.06.42-.15.98-.43,1.34-.44.56-9.76.41-10.3-.09-.56-.53-.4-1.13-.11-1.68,2.34-4.47,4.71-8.93,7.54-14.29Z"/>
      <path class="cls-3" d="M417.96,43.96c-5.05.46-5.14.41-4.43-4.58.27-1.84.78-3.65,1.18-5.48q1.39-6.34,6.89-6.06c5.68.29,8.09,2.15,8.42,6.48.31,4.09-2.59,7.99-6.88,9.01-1.69.4-3.46.43-5.19.63Z"/>
      <path class="cls-3" d="M94.04,48.21c3.25-5.96,6.15-11.26,9.32-17.07,1.67,5.19,2.29,10.04,3.18,14.82.29,1.58-.15,2.31-1.86,2.27-3.33-.07-6.67-.02-10.64-.02Z"/>
    </g>
  </g>
</svg>