<?xml version="1.0" encoding="UTF-8"?>
<svg id="Layer_2" data-name="Layer 2" xmlns="http://www.w3.org/2000/svg" viewBox="0 0 529.83 347.72">
  <defs>
    <style>
      .cls-1 {
        fill: #ef3a41;
      }

      .cls-1, .cls-2, .cls-3 {
        stroke-width: 0px;
      }

      .cls-2 {
        fill: #46c0bc;
      }

      .cls-3 {
        fill: #0f1332;
      }
    </style>
  </defs>
  <g id="Layer_1-2" data-name="Layer 1">
    <g>
      <path class="cls-3" d="M134.37,161.37c-27.74.05-55.47.14-83.21.14-7.49,0-11.88-3.89-11.46-9.77.3-4.22,3.39-7.68,7.72-8.43,1.84-.32,3.73-.41,5.6-.43,61.72-.52,123.44-.23,185.17.07,1.38,0,2.76.16,3.77-1.11,7.27-9.14,16.11-16.54,25.98-22.77-.07-.36-.13-.72-.2-1.07-6.78,0-13.57,0-20.35,0-54.48-.04-108.95-.07-163.43-.12-1.87,0-3.77.08-5.61-.17-4.64-.64-8.14-4.6-8.08-8.91.05-4.43,3.43-8.29,8.03-8.96,1.97-.29,3.98-.36,5.98-.36,42.86-.02,85.71-.02,128.57-.03,7.32,0,7.12.04,6.05-7.12-4.69-31.28,17.77-58.95,48.09-60.48,2.58-.13,4.07-.87,5.2-3.21,2.45-5.05,5.1-9.98,8.59-14.44,6.16-7.89,13.97-13.03,24.04-13.54,14.71-.74,29.47-1.1,44.16.28,8.78.83,15.15,5.94,20.47,12.92,3.81,4.99,6.6,10.49,9.72,15.83.88,1.51,1.92,1.93,3.56,2.06,8.6.7,16.51,3.29,23.88,7.99,26.54,16.96,29.83,47.83,18.53,70.35-1.01,2.01-2.08,4.07-3.52,5.78-1.43,1.7-.85,2.74.38,4.01,10.51,10.83,17.78,23.84,23.59,37.51,19.38,45.54,14.1,89.33-12.1,130.4-25.21,39.51-62.49,58.65-109.08,59.9-15.81.42-31.14-2.65-46.03-7.86-3.81-1.34-7.62-1.99-11.71-1.98-43.23.1-86.47.06-129.7.05-1.62,0-3.25-.02-4.87-.17-5.43-.51-9.25-4.58-9.05-9.57.2-4.98,3.91-8.56,9.44-8.63,12.37-.16,24.74-.13,37.11-.2,2.75-.01,5.49-.11,8.23-.16,3.49.08,6.98.24,10.47.25,27.73.03,55.46.02,83.2.03,8.04,0,16.08,0,24.47,0-13.92-3.76-26.11-10.2-36.72-19.13-5.45-4.59-10.58-8.05-17.95-6.64-1.2.23-2.49.02-3.74.02-19.1.03-38.21.06-57.31.09-4.3-1.15-8.68-.42-13.02-.51-5.98-.13-11.97-.04-17.95-.15-6.1-.11-9.71-2.58-10.84-7.22-1.12-4.6.95-8.42,6.24-11.48,1.54-.62,3.17-.53,4.8-.53,27.12,0,54.23,0,81.35-.02,1.08,0,2.5.48,3.14-.55.72-1.15-.63-1.99-1.18-2.9-3.38-5.56-6.71-11.19-8.67-17.4-1.21-3.83-3.27-4.73-7.05-4.71-33.49.15-66.97.09-100.46.09-34.08-.04-68.16-.09-102.24-.14-1.87,0-3.76.09-5.61-.11-4.66-.5-8.27-4.42-8.47-9.01-.2-4.73,2.58-8.23,7.53-9.22,1.69-.34,3.47-.33,5.21-.34,15.35-.05,30.71-.08,46.05-.11,7.73.04,15.47.11,23.21.11,43.47.02,86.93.02,130.4.03,4.87,0,5.01-.04,4.35-5-.63-4.72-.78-9.45-.73-14.2.06-5.82.03-5.82-5.98-5.83-43.84-.02-87.68-.03-131.52-.05-5.86,0-11.73-.06-17.59-.09-2.97-.59-5.97-.44-8.97-.44-13.74-.02-27.49,0-41.23-.08-3.98-.02-7.69-.92-9.79-4.85-3.26-6.09.22-12.91,7.11-13.75,2.59-.32,5.24-.26,7.86-.27,39.73-.08,79.46-.13,119.19-.2,20.98.06,41.95.14,62.93.17,11.36.01,22.73-.08,34.09-.08,2.17,0,4.35-.15,3.39,3.42-6.21,23.03-3.93,45.33,6.62,66.66,13.85,28,35.86,46.06,66.69,52.17,26.97,5.34,52.05-.41,74.18-16.56,17.84-13.02,29.41-30.77,35.63-52.1,5.26-18.06,3.98-35.76-1.44-53.42-.49-1.59-1.02-3.07-.44-4.7,3.38-7.31,6.87-14.59,10.13-21.97,1.55-3.5,1.25-3.79-2.61-3.16-5.46.89-10.36,3.37-15.34,5.61-2.88.66-3.58-1.8-4.7-3.44-11.86-17.33-27.5-29.82-47.34-36.83-43.93-15.52-88.73,5.87-107.75,38.08-.99,1.67-2.23,2.51-4.22,2.47-3.62-.07-7.24.04-10.86.04-33.33.05-66.66.09-99.98.13ZM325.69,16.59s0,.02,0,.04c-5.99,0-11.99-.07-17.98.03-2.84.05-5.65.29-8.32,1.58-6.44,3.1-8.86,9.37-12.24,14.93-1.13,1.87-.67,2.83,1.11,3.8,3.61,1.97,7.09,4.13,10.28,6.78,9,7.47,14.14,17.17,16.67,28.4.26,1.15.27,2.08,1.91,2.04,4.74-.11,9.49-.03,14.23-.06,1.45,0,2.43-.38,2.91-2.17,1.41-5.23,3.17-10.24,5.82-15.14,3.95-7.32,9-13.23,15.99-17.41,8.33-4.99,8.34-4.76,3.34-13.29-3.82-6.52-9.31-9.72-16.87-9.56-5.62.12-11.23.02-16.85.02ZM415.9,83.19c.13-2.65-.37-5.84-1.2-9-3.77-14.31-18.82-29.06-39.38-25.26-11.47,2.12-20.54,7.79-24.16,19.92-1.89,6.36-2.35,5.81,4.55,7.29,19.76,4.24,36.31,14.74,52.08,26.64,2.69,2.03,2.95,1.31,3.96-.9,2.63-5.75,4.24-11.71,4.14-18.69ZM264.89,48.75c-6.98.27-14.96,3.52-21.24,10.65-9.66,10.98-11.16,23.46-6.97,37.01.28.92.54,2.33,1.59,2.33,3.6-.02,7.46,1.79,10.72-1.26,1.08-1.01,2.12-2.13,3.38-2.86,14.22-8.26,29.01-15.22,45.21-18.59,2.84-.59,2.64-1.56,2.11-3.63-3.44-13.34-16.57-23.94-34.81-23.65ZM281.1,100.35c1.36.18,1.92.31,2.49.32,10.48.19,20.97.64,31.45-.04,9.1-.59,18.16-.77,27.21.75,26.7,4.48,48.68,17.18,65.88,38,2.7,3.27,5.21,5.5,9.59,4.72,1.05-.19,2.52.61,3.1-.49.66-1.24-.65-2.29-1.3-3.26-6.08-9.08-13.25-17.24-21.7-24.14-26.34-21.49-56.54-29.21-90.01-24.53-9.09,1.27-17.79,4.08-26.7,8.68ZM325.83,329.32c2.5,1.56,4.71,1.78,6.97,1.76,10.33-.11,20.3-2.26,29.93-5.79,19.26-7.05,35.88-17.95,48.54-34.37,1.3-1.68,2.54-3.38,3.04-6.25-1.22.94-1.85,1.34-2.38,1.85-1.53,1.47-3.05,2.95-4.51,4.49-19.5,20.58-43.78,31.58-71.47,35.93-3.21.5-6.7.17-10.12,2.39ZM437,239.11c7.93-18.6,4.94-62.31-4.25-71.45-3.6,5.05-4.18,10.31-1.41,16.12,2.92,6.14,3.73,12.9,4.68,19.57,1.63,11.55,1.15,23.17.99,35.77Z"/>
      <path class="cls-1" d="M417.04,180.41c-.59,1.64-.06,3.13.43,4.72,5.42,17.66,6.71,35.37,1.44,53.42-6.22,21.34-17.79,39.09-35.63,52.1-22.13,16.15-47.21,21.9-74.18,16.56-30.83-6.11-52.84-24.17-66.69-52.17-10.55-21.32-12.83-43.62-6.62-66.66.96-3.57-1.22-3.42-3.39-3.42-11.36,0-22.73.1-34.09.08-20.98-.03-41.95-.11-62.93-.17-1.58-2.52-4.54-3.73-5.73-6.73-2.75-6.91.1-12.04,4.71-16.77,33.33-.04,66.66-.08,99.98-.13,3.62,0,7.24-.11,10.86-.04,1.99.04,3.24-.8,4.22-2.47,19.02-32.21,63.82-53.6,107.75-38.08,19.84,7.01,35.48,19.5,47.34,36.83,1.12,1.64,1.82,4.1,4.69,3.44-1.46,1.16-2.77,2.59-4.39,3.42-6.64,3.38-13.37,6.57-20.06,9.84-15.28,7.45-30.66,14.71-45.43,23.18.02-.62-.04-1.26.07-1.86,2.87-15.77,5.83-31.53,8.58-47.32.63-3.62,1.92-7.31.85-11.46-7.61,6.31-13.86,13.25-20.15,20.16-1.16,1.28-1.63,2.85-1.92,4.4-1.64,8.66-3.18,17.33-4.71,26.01-.74,4.18-1.3,8.25-6.1,10.21-2.09.85-4.07,2.65-5.42,4.5-5.05,6.91-5.4,15.36-1.68,22.26,3.65,6.77,11.33,10.62,19.59,9.83,7.7-.74,15.55-6.83,17.26-14.1.73-3.1,2.34-4.71,4.89-6.02,19.65-10.09,39.29-20.21,58.93-30.33.99,2.19-.79,4.6.77,7.37,2.38-3.74,4.56-7.17,6.75-10.6ZM331.85,289.69c-.04-1.02-.05-1.64-.1-2.26-.33-4.14-3.15-6.85-6.93-6.67-3.28.16-5.6,2.95-5.75,6.98-.05,1.36-.09,2.73,0,4.09.26,4.2,2.49,6.84,5.81,6.99,3.35.14,5.98-2.24,6.72-6.2.2-1.09.2-2.22.26-2.93ZM251.85,221.18c.74-.14,1.97-.34,3.18-.59,3.17-.65,5.13-2.54,5.39-5.8.26-3.19-1.9-5.77-5.34-6.73-2.74-.77-5.45-.57-8.06.45-3.67,1.44-5.24,5.57-3.35,8.95,1.66,2.97,4.58,3.59,8.18,3.73ZM331.75,136.22c.05-6.57-1.65-9.19-6.03-9.26-3.89-.07-6.44,2.98-6.59,7.88-.2,6.31,1.83,9.74,5.92,10.01,4.44.29,6.66-2.57,6.71-8.63ZM402.75,220.81c.54-.04,1.41-.07,2.27-.2,3.58-.52,6.19-3.22,6.2-6.36,0-3.15-2.22-5.71-5.72-6.4-2.75-.54-5.47-.29-8.09.73-2.14.84-3.39,2.35-3.66,4.73-.56,4.91,2.45,7.55,8.99,7.49Z"/>
      <path class="cls-3" d="M460.82,285.41c3.28-38.91,4.61-77.88,5.84-116.84.05-1.62-.09-3.27.11-4.87.34-2.69-.65-4.2-3.1-5.59-12.58-7.12-19.62-18.34-20.6-32.46-1.76-25.42,2.63-49.77,15.76-72.05,4.1-6.96,9.1-13.18,16.18-17.36,9.51-5.62,19.28-3.7,27.2,3.4,12.38,11.11,18.44,25.77,22.85,41.29,3.7,13.04,5.19,26.41,4.67,39.93-.64,16.6-7.15,29.98-22.63,37.73-2.27,1.14-2.2,2.66-2.15,4.54.6,21.61,1.18,43.22,1.8,64.83.69,24.23,1.41,48.46,2.11,72.69.15,5.12.49,10.25.36,15.36-.46,18.43-18.83,30.35-34.83,22.55-8.74-4.26-13.26-11.65-13.5-21.3-.26-10.61-.06-21.23-.06-31.85ZM471.49,60.54c-.41-.07-.82-.14-1.22-.22-.8,1.61-1.66,3.19-2.38,4.84-7.35,17.02-10.38,34.86-10.16,53.32.19,15.54,6.69,24.78,21.28,29.81,1.8.62,2.44,1.39,2.33,3.12-.05.87,0,1.75-.02,2.62-1.2,50.58-2.97,101.14-5.07,151.69-.17,3.99-.51,8.01.35,11.96.88,4.06,3.68,6.71,7.26,7.07,3.67.38,7.48-1.84,9.14-5.32.83-1.74,1.03-3.58,1.01-5.48-.13-9.12-.19-18.24-.39-27.36-.99-44.46-1.97-88.92-3.1-133.38-.09-3.57,1.07-5.24,4.47-5.93,11.5-2.36,19.36-13.83,19.84-25.26.68-16.25-1.45-32.16-6.73-47.58-1.68-4.92-3.54-9.79-6.81-15.02-.19,3.22-.44,5.56-.44,7.9.04,10.87.17,21.74.23,32.61.04,6.5.12,13-.02,19.49-.1,4.49-3.64,6.72-7.78,5.06-3.01-1.21-3.12-3.84-3.12-6.57.01-21.24.02-42.48-.04-63.72-.01-3.93-1.55-5.75-4.48-5.57-3.47.21-3.68,2.78-3.68,5.42.02,15.87.05,31.73.07,47.6,0,6,.11,12-.05,17.99-.12,4.37-3.32,6.41-7.47,4.98-3.24-1.11-3.06-4.01-3.06-6.56-.05-13.74.03-27.49.05-41.23.01-5.43,0-10.86,0-16.29Z"/>
      <path class="cls-1" d="M61.23,204.46c5.86.03,11.73.09,17.59.09,43.84.02,87.68.04,131.52.05,6.01,0,6.03,0,5.98,5.83-.05,4.75.11,9.47.73,14.2.66,4.96.53,5-4.35,5-43.47,0-86.93,0-130.4-.03-7.74,0-15.48-.07-23.21-.11-.26-.26-.5-.54-.78-.78-8.96-7.65-8.47-18.42,2.92-24.25Z"/>
      <path class="cls-1" d="M116.61,248.41c33.49,0,66.97.05,100.46-.09,3.78-.02,5.84.88,7.05,4.71,1.96,6.21,5.29,11.84,8.67,17.4.55.9,1.9,1.75,1.18,2.9-.64,1.03-2.06.55-3.14.55-27.12.02-54.23.02-81.35.02-1.62,0-3.25-.09-4.8.53-6.66-1.18-13.41-.82-20.12-.83-9.78-.02-14.48-7.75-13.72-15.37.41-4.15,3.53-6.72,5.78-9.8Z"/>
      <path class="cls-1" d="M180.25,293.77c19.1-.03,38.21-.06,57.31-.09,1.25,0,2.54.2,3.74-.02,7.36-1.4,12.5,2.06,17.95,6.64,10.61,8.94,22.8,15.38,36.72,19.13-8.39,0-16.43,0-24.47,0-27.73,0-55.46,0-83.2-.03-3.49,0-6.98-.16-10.47-.25-.95-.98-2.01-1.88-2.84-2.95-6.4-8.31-4.59-15.99,5.25-22.44Z"/>
      <path class="cls-2" d="M325.69,16.59c5.62,0,11.24.09,16.85-.02,7.56-.16,13.05,3.04,16.87,9.56,5.01,8.54,5,8.31-3.34,13.29-6.99,4.18-12.04,10.09-15.99,17.41-2.64,4.9-4.41,9.91-5.82,15.14-.48,1.79-1.45,2.16-2.91,2.17-4.74.03-9.49-.06-14.23.06-1.64.04-1.65-.89-1.91-2.04-2.53-11.23-7.68-20.93-16.67-28.4-3.19-2.65-6.67-4.81-10.28-6.78-1.77-.97-2.24-1.94-1.11-3.8,3.38-5.56,5.8-11.84,12.24-14.93,2.67-1.29,5.48-1.53,8.32-1.58,5.99-.1,11.98-.03,17.98-.03,0-.01,0-.02,0-.04Z"/>
      <path class="cls-2" d="M415.9,83.19c.09,6.99-1.52,12.94-4.14,18.69-1.01,2.21-1.28,2.93-3.96.9-15.77-11.9-32.32-22.4-52.08-26.64-6.9-1.48-6.44-.93-4.55-7.29,3.61-12.13,12.69-17.8,24.16-19.92,20.56-3.81,35.61,10.95,39.38,25.26.83,3.16,1.34,6.35,1.2,9Z"/>
      <path class="cls-2" d="M264.89,48.75c18.24-.29,31.37,10.31,34.81,23.65.53,2.07.73,3.04-2.11,3.63-16.2,3.36-30.99,10.33-45.21,18.59-1.26.73-2.3,1.85-3.38,2.86-3.26,3.05-7.12,1.24-10.72,1.26-1.05,0-1.31-1.41-1.59-2.33-4.19-13.56-2.69-26.04,6.97-37.01,6.28-7.13,14.26-10.38,21.24-10.65Z"/>
      <path class="cls-2" d="M281.1,100.35c8.91-4.6,17.61-7.41,26.7-8.68,33.47-4.68,63.67,3.04,90.01,24.53,8.45,6.9,15.63,15.06,21.7,24.14.65.97,1.96,2.02,1.3,3.26-.58,1.1-2.05.3-3.1.49-4.37.79-6.88-1.44-9.59-4.72-17.2-20.81-39.18-33.52-65.88-38-9.05-1.52-18.11-1.34-27.21-.75-10.48.69-20.97.23-31.45.04-.57-.01-1.13-.14-2.49-.32Z"/>
      <path class="cls-2" d="M339.33,197.36c14.76-8.47,30.14-15.73,45.43-23.18,6.69-3.26,13.43-6.46,20.06-9.84,1.62-.83,2.94-2.26,4.39-3.42,4.98-2.25,9.89-4.72,15.34-5.62,3.85-.63,4.15-.35,2.61,3.16-3.26,7.38-6.75,14.67-10.13,21.97-2.17,3.41-4.36,6.84-6.74,10.58-1.56-2.77.23-5.18-.77-7.37,1.04-2.94,2.15-5.85,3.1-8.82.45-1.41.92-3.5-1.4-3.32-5.17.4-10.51-.99-15.5,1.49-16.85,8.4-33.78,16.63-50.52,25.24-2.7,1.39-4.18,1.24-5.88-.87Z"/>
      <path class="cls-2" d="M325.83,329.32c3.42-2.21,6.92-1.88,10.12-2.39,27.68-4.34,51.97-15.34,71.47-35.93,1.46-1.54,2.98-3.02,4.51-4.49.53-.51,1.16-.91,2.38-1.85-.5,2.87-1.74,4.57-3.04,6.25-12.67,16.42-29.28,27.31-48.54,34.37-9.63,3.53-19.6,5.68-29.93,5.79-2.26.02-4.46-.2-6.97-1.76Z"/>
      <path class="cls-2" d="M437,239.11c.17-12.6.64-24.22-.99-35.77-.94-6.67-1.75-13.43-4.68-19.57-2.76-5.8-2.18-11.07,1.41-16.12,9.19,9.14,12.18,52.85,4.25,71.45Z"/>
      <path class="cls-3" d="M339.33,197.36c1.7,2.11,3.17,2.26,5.88.87,16.74-8.61,33.67-16.84,50.52-25.24,4.99-2.49,10.33-1.1,15.5-1.49,2.32-.18,1.85,1.92,1.4,3.32-.95,2.97-2.05,5.88-3.1,8.82-19.64,10.11-39.28,20.24-58.93,30.33-2.55,1.31-4.16,2.92-4.89,6.02-1.71,7.28-9.56,13.36-17.26,14.1-8.26.79-15.93-3.06-19.59-9.83-3.72-6.9-3.37-15.35,1.68-22.26,1.36-1.86,3.33-3.65,5.42-4.5,4.8-1.96,5.36-6.03,6.1-10.21,1.53-8.68,3.07-17.35,4.71-26.01.29-1.55.76-3.13,1.92-4.4,6.29-6.91,12.54-13.85,20.15-20.16,1.07,4.15-.22,7.84-.85,11.46-2.75,15.79-5.71,31.55-8.58,47.32-.11.61-.05,1.24-.07,1.86Z"/>
      <path class="cls-3" d="M331.85,289.69c-.06.72-.05,1.84-.26,2.93-.75,3.96-3.37,6.34-6.72,6.2-3.32-.14-5.55-2.79-5.81-6.99-.09-1.36-.04-2.73,0-4.09.15-4.02,2.47-6.82,5.75-6.98,3.78-.18,6.61,2.53,6.93,6.67.05.62.06,1.24.1,2.26Z"/>
      <path class="cls-3" d="M251.85,221.18c-3.6-.14-6.51-.76-8.18-3.73-1.89-3.38-.33-7.51,3.35-8.95,2.62-1.02,5.32-1.22,8.06-.45,3.44.96,5.6,3.55,5.34,6.73-.27,3.27-2.22,5.15-5.39,5.8-1.21.25-2.44.46-3.18.59Z"/>
      <path class="cls-3" d="M331.75,136.22c-.05,6.06-2.27,8.91-6.71,8.63-4.09-.27-6.12-3.7-5.92-10.01.16-4.9,2.7-7.95,6.59-7.88,4.38.07,6.09,2.69,6.03,9.26Z"/>
      <path class="cls-3" d="M402.75,220.81c-6.54.06-9.55-2.59-8.99-7.49.27-2.38,1.51-3.9,3.66-4.73,2.62-1.02,5.34-1.27,8.09-.73,3.49.69,5.72,3.25,5.72,6.4,0,3.14-2.62,5.84-6.2,6.36-.86.13-1.74.15-2.27.2Z"/>
      <path class="cls-1" d="M471.49,60.54c0,5.43,0,10.86,0,16.29-.03,13.74-.1,27.49-.05,41.23,0,2.55-.18,5.45,3.06,6.56,4.15,1.42,7.35-.61,7.47-4.98.16-5.99.06-11.99.05-17.99-.02-15.87-.05-31.73-.07-47.6,0-2.63.21-5.2,3.68-5.42,2.93-.18,4.47,1.64,4.48,5.57.06,21.24.05,42.48.04,63.72,0,2.73.11,5.36,3.12,6.57,4.14,1.66,7.68-.57,7.78-5.06.14-6.49.06-12.99.02-19.49-.06-10.87-.19-21.74-.23-32.61,0-2.34.25-4.67.44-7.9,3.27,5.23,5.13,10.1,6.81,15.02,5.28,15.42,7.41,31.33,6.73,47.58-.48,11.43-8.33,22.89-19.84,25.26-3.4.7-4.56,2.37-4.47,5.93,1.13,44.46,2.11,88.92,3.1,133.38.2,9.12.26,18.24.39,27.36.03,1.9-.17,3.74-1.01,5.48-1.66,3.48-5.47,5.69-9.14,5.32-3.58-.37-6.37-3.02-7.26-7.07-.86-3.95-.52-7.97-.35-11.96,2.1-50.55,3.87-101.11,5.07-151.69.02-.87-.03-1.75.02-2.62.1-1.72-.53-2.5-2.33-3.12-14.59-5.03-21.09-14.26-21.28-29.81-.22-18.46,2.81-36.31,10.16-53.32.71-1.65,1.58-3.23,2.38-4.84.41.07.82.14,1.22.22Z"/>
    </g>
  </g>
</svg>