<?xml version="1.0" encoding="UTF-8"?>
<svg id="Layer_2" data-name="Layer 2" xmlns="http://www.w3.org/2000/svg" viewBox="0 0 375.99 265.01">
  <defs>
    <style>
      .cls-1 {
        fill: none;
        stroke-linecap: round;
        stroke-linejoin: round;
      }

      .cls-1, .cls-2 {
        stroke: #231f20;
        stroke-width: 15px;
      }

      .cls-3 {
        fill: #fff;
        stroke-width: 0px;
      }

      .cls-2 {
        fill: #46c0bc;
        stroke-miterlimit: 10;
      }
    </style>
  </defs>
  <g id="Lang_logo" data-name="Lang logo">
    <polygon class="cls-3" points="67.18 170.57 15.11 226.95 75.82 218.32 67.18 170.57"/>
    <rect class="cls-3" x="60.01" y="33.58" width="301.14" height="223.94"/>
    <circle class="cls-2" cx="209.54" cy="132.51" r="125.01"/>
    <path class="cls-1" d="M93.58,176.01s108.37,67.82,232.22-4.29"/>
    <path class="cls-1" d="M99.12,76.92s93.5-36.31,221-1.76"/>
    <path class="cls-1" d="M153.77,20.85s-53.92,95.44.79,224.28"/>
    <path class="cls-1" d="M256.96,16.69s54.46,119.11,0,228.81"/>
    <line class="cls-1" x1="207.35" y1="8.99" x2="206.79" y2="256.1"/>
    <line class="cls-1" x1="84.53" y1="132.51" x2="334.54" y2="132.51"/>
    <path class="cls-1" d="M99.43,33.58l-36.95,1.07s-10.71-4.82-7.77,18.74l-.51,133.88L7.5,234.67l50.7-15.8.54,32.4s-4.1,8.57,17.5,5.62l56.41.62"/>
    <path class="cls-1" d="M322.36,33.58l37.69,1.07s10.92-4.82,7.92,18.74l-4.1,197.88s4.18,8.57-17.85,5.62l-57.53.62"/>
  </g>
</svg>