<?xml version="1.0" encoding="utf-8"?>
<!-- Generator: Adobe Illustrator 28.0.0, SVG Export Plug-In . SVG Version: 6.00 Build 0)  -->
<svg version="1.1" id="Layer_1" xmlns="http://www.w3.org/2000/svg" xmlns:xlink="http://www.w3.org/1999/xlink" x="0px" y="0px"
	 viewBox="0 0 841.89 595.28" style="enable-background:new 0 0 841.89 595.28;" xml:space="preserve">
<style type="text/css">
	.st0{fill:#0F1332;}
	.st1{fill:#F26722;}
	.st2{fill:url(#SVGID_1_);}
	.st3{fill:url(#SVGID_00000157287469348257381260000003301807394219116426_);}
	.st4{fill:url(#SVGID_00000029040886885652128100000016650331756833569719_);}
	.st5{fill:#FDFEFE;}
	.st6{fill:url(#SVGID_00000041263250749413825670000001695124017112703933_);}
	.st7{fill:url(#SVGID_00000149348529797565859150000000980551341432940985_);}
	.st8{fill:#FFFFFF;}
</style>
<path class="st0" d="M290.88,236.01c-27.74,0.05-55.47,0.14-83.21,0.14c-7.49,0-11.88-3.89-11.46-9.77c0.3-4.22,3.39-7.68,7.72-8.43
	c1.84-0.32,3.73-0.41,5.6-0.43c61.72-0.52,123.44-0.23,185.17,0.07c1.38,0.01,2.76,0.16,3.77-1.11
	c7.27-9.14,16.11-16.54,25.98-22.77c-0.07-0.36-0.13-0.72-0.2-1.07c-6.78,0-13.57,0-20.35,0c-54.48-0.04-108.95-0.07-163.43-0.12
	c-1.87,0-3.77,0.08-5.61-0.17c-4.64-0.64-8.14-4.6-8.08-8.91c0.05-4.43,3.43-8.29,8.03-8.96c1.97-0.29,3.98-0.36,5.98-0.36
	c42.86-0.02,85.71-0.02,128.57-0.03c7.32,0,7.12,0.04,6.05-7.12c-4.69-31.28,17.77-58.95,48.09-60.48c2.58-0.13,4.07-0.87,5.2-3.21
	c2.45-5.05,5.1-9.98,8.59-14.44c6.16-7.89,13.97-13.03,24.04-13.54c14.71-0.74,29.47-1.1,44.16,0.28
	c8.78,0.83,15.15,5.94,20.47,12.92c3.81,4.99,6.6,10.49,9.72,15.83c0.88,1.51,1.92,1.93,3.56,2.06c8.6,0.7,16.51,3.29,23.88,7.99
	c26.54,16.96,29.83,47.83,18.53,70.35c-1.01,2.01-2.08,4.07-3.52,5.78c-1.43,1.7-0.85,2.74,0.38,4.01
	c10.51,10.83,17.78,23.84,23.59,37.51c19.38,45.54,14.1,89.33-12.1,130.4c-25.21,39.51-62.49,58.65-109.08,59.9
	c-15.81,0.42-31.14-2.65-46.03-7.86c-3.81-1.34-7.62-1.99-11.71-1.98c-43.23,0.1-86.47,0.06-129.7,0.05c-1.62,0-3.25-0.02-4.87-0.17
	c-5.43-0.51-9.25-4.58-9.05-9.57c0.2-4.98,3.91-8.56,9.44-8.63c12.37-0.16,24.74-0.13,37.11-0.2c2.75-0.01,5.49-0.11,8.23-0.16
	c3.49,0.08,6.98,0.24,10.47,0.25c27.73,0.03,55.46,0.02,83.2,0.03c8.04,0,16.08,0,24.47,0c-13.92-3.76-26.11-10.2-36.72-19.13
	c-5.45-4.59-10.58-8.05-17.95-6.64c-1.2,0.23-2.49,0.02-3.74,0.02c-19.1,0.03-38.21,0.06-57.31,0.09c-4.3-1.15-8.68-0.42-13.02-0.51
	c-5.98-0.13-11.97-0.04-17.95-0.15c-6.1-0.11-9.71-2.58-10.84-7.22c-1.12-4.6,0.95-8.42,6.24-11.48c1.54-0.62,3.17-0.53,4.8-0.53
	c27.12,0,54.23,0.01,81.35-0.02c1.08,0,2.5,0.48,3.14-0.55c0.72-1.15-0.63-1.99-1.18-2.9c-3.38-5.56-6.71-11.19-8.67-17.4
	c-1.21-3.83-3.27-4.73-7.05-4.71c-33.49,0.15-66.97,0.09-100.46,0.09c-34.08-0.04-68.16-0.09-102.24-0.14
	c-1.87,0-3.76,0.09-5.61-0.11c-4.66-0.5-8.27-4.42-8.47-9.01c-0.2-4.73,2.58-8.23,7.53-9.22c1.69-0.34,3.47-0.33,5.21-0.34
	c15.35-0.05,30.71-0.08,46.05-0.11c7.73,0.04,15.47,0.11,23.21,0.11c43.47,0.02,86.93,0.02,130.4,0.03c4.87,0,5.01-0.04,4.35-5
	c-0.63-4.72-0.78-9.45-0.73-14.2c0.06-5.82,0.03-5.82-5.98-5.83c-43.84-0.02-87.68-0.03-131.52-0.05c-5.86,0-11.73-0.06-17.59-0.09
	c-2.97-0.59-5.97-0.44-8.97-0.44c-13.74-0.02-27.49,0-41.23-0.08c-3.98-0.02-7.69-0.92-9.79-4.85c-3.26-6.09,0.22-12.91,7.11-13.75
	c2.59-0.32,5.24-0.26,7.86-0.27c39.73-0.08,79.46-0.13,119.19-0.2c20.98,0.06,41.95,0.14,62.93,0.17
	c11.36,0.01,22.73-0.08,34.09-0.08c2.17,0,4.35-0.15,3.39,3.42c-6.21,23.03-3.93,45.33,6.62,66.66c13.85,28,35.86,46.06,66.69,52.17
	c26.97,5.34,52.05-0.41,74.18-16.56c17.84-13.02,29.41-30.77,35.63-52.1c5.26-18.06,3.98-35.76-1.44-53.42
	c-0.49-1.59-1.02-3.07-0.44-4.7c3.38-7.31,6.87-14.59,10.13-21.97c1.55-3.5,1.25-3.79-2.61-3.16c-5.46,0.89-10.36,3.37-15.34,5.61
	c-2.88,0.66-3.58-1.8-4.7-3.44c-11.86-17.33-27.5-29.82-47.34-36.83c-43.93-15.52-88.73,5.87-107.75,38.08
	c-0.99,1.67-2.23,2.51-4.22,2.47c-3.62-0.07-7.24,0.04-10.86,0.04C357.54,235.93,324.21,235.97,290.88,236.01z M482.21,91.23
	c0,0.01,0,0.02,0,0.04c-5.99,0-11.99-0.07-17.98,0.03c-2.84,0.05-5.65,0.29-8.32,1.58c-6.44,3.1-8.86,9.37-12.24,14.93
	c-1.13,1.87-0.67,2.83,1.11,3.8c3.61,1.97,7.09,4.13,10.28,6.78c9,7.47,14.14,17.17,16.67,28.4c0.26,1.15,0.27,2.08,1.91,2.04
	c4.74-0.11,9.49-0.03,14.23-0.06c1.45-0.01,2.43-0.38,2.91-2.17c1.41-5.23,3.17-10.24,5.82-15.14c3.95-7.32,9-13.23,15.99-17.41
	c8.33-4.99,8.34-4.76,3.34-13.29c-3.82-6.52-9.31-9.72-16.87-9.56C493.44,91.32,487.82,91.23,482.21,91.23z M572.41,157.83
	c0.13-2.65-0.37-5.84-1.2-9c-3.77-14.31-18.82-29.06-39.38-25.26c-11.47,2.12-20.54,7.79-24.16,19.92
	c-1.89,6.36-2.35,5.81,4.55,7.29c19.76,4.24,36.31,14.74,52.08,26.64c2.69,2.03,2.95,1.31,3.96-0.9
	C570.89,170.77,572.5,164.82,572.41,157.83z M421.4,123.39c-6.98,0.27-14.96,3.52-21.24,10.65c-9.66,10.98-11.16,23.46-6.97,37.01
	c0.28,0.92,0.54,2.33,1.59,2.33c3.6-0.02,7.46,1.79,10.72-1.26c1.08-1.01,2.12-2.13,3.38-2.86c14.22-8.26,29.01-15.22,45.21-18.59
	c2.84-0.59,2.64-1.56,2.11-3.63C452.77,133.7,439.64,123.1,421.4,123.39z M437.61,174.99c1.36,0.18,1.92,0.31,2.49,0.32
	c10.48,0.19,20.97,0.64,31.45-0.04c9.1-0.59,18.16-0.77,27.21,0.75c26.7,4.48,48.68,17.18,65.88,38c2.7,3.27,5.21,5.5,9.59,4.72
	c1.05-0.19,2.52,0.61,3.1-0.49c0.66-1.24-0.65-2.29-1.3-3.26c-6.08-9.08-13.25-17.24-21.7-24.14
	c-26.34-21.49-56.54-29.21-90.01-24.53C455.22,167.58,446.52,170.38,437.61,174.99z M482.35,403.96c2.5,1.56,4.71,1.78,6.97,1.76
	c10.33-0.11,20.3-2.26,29.93-5.79c19.26-7.05,35.88-17.95,48.54-34.37c1.3-1.68,2.54-3.38,3.04-6.25c-1.22,0.94-1.85,1.34-2.38,1.85
	c-1.53,1.47-3.05,2.95-4.51,4.49c-19.5,20.58-43.78,31.58-71.47,35.93C489.26,402.08,485.77,401.75,482.35,403.96z M593.51,313.75
	c7.93-18.6,4.94-62.31-4.25-71.45c-3.6,5.05-4.18,10.31-1.41,16.12c2.92,6.14,3.73,12.9,4.68,19.57
	C594.15,289.53,593.67,301.15,593.51,313.75z"/>
<path class="st1" d="M573.55,255.05c-0.59,1.64-0.06,3.13,0.43,4.72c5.42,17.66,6.71,35.37,1.44,53.42
	c-6.22,21.34-17.79,39.09-35.63,52.1c-22.13,16.15-47.21,21.9-74.18,16.56c-30.83-6.11-52.84-24.17-66.69-52.17
	c-10.55-21.32-12.83-43.62-6.62-66.66c0.96-3.57-1.22-3.42-3.39-3.42c-11.36,0-22.73,0.1-34.09,0.08
	c-20.98-0.03-41.95-0.11-62.93-0.17c-1.58-2.52-4.54-3.73-5.73-6.73c-2.75-6.91,0.1-12.04,4.71-16.77
	c33.33-0.04,66.66-0.08,99.98-0.13c3.62,0,7.24-0.11,10.86-0.04c1.99,0.04,3.24-0.8,4.22-2.47c19.02-32.21,63.82-53.6,107.75-38.08
	c19.84,7.01,35.48,19.5,47.34,36.83c1.12,1.64,1.82,4.1,4.69,3.44c-1.46,1.16-2.77,2.59-4.39,3.42c-6.64,3.38-13.37,6.57-20.06,9.84
	c-15.28,7.45-30.66,14.71-45.43,23.18c0.02-0.62-0.04-1.26,0.07-1.86c2.87-15.77,5.83-31.53,8.58-47.32
	c0.63-3.62,1.92-7.31,0.85-11.46c-7.61,6.31-13.86,13.25-20.15,20.16c-1.16,1.28-1.63,2.85-1.92,4.4
	c-1.64,8.66-3.18,17.33-4.71,26.01c-0.74,4.18-1.3,8.25-6.1,10.21c-2.09,0.85-4.07,2.65-5.42,4.5c-5.05,6.91-5.4,15.36-1.68,22.26
	c3.65,6.77,11.33,10.62,19.59,9.83c7.7-0.74,15.55-6.83,17.26-14.1c0.73-3.1,2.34-4.71,4.89-6.02
	c19.65-10.09,39.29-20.21,58.93-30.33c0.99,2.19-0.79,4.6,0.77,7.37C569.19,261.91,571.37,258.48,573.55,255.05z M488.37,364.33
	c-0.04-1.02-0.05-1.64-0.1-2.26c-0.33-4.14-3.15-6.85-6.93-6.67c-3.28,0.16-5.6,2.95-5.75,6.98c-0.05,1.36-0.09,2.73-0.01,4.09
	c0.26,4.2,2.49,6.84,5.81,6.99c3.35,0.14,5.98-2.24,6.72-6.2C488.31,366.18,488.31,365.05,488.37,364.33z M408.36,295.82
	c0.74-0.14,1.97-0.34,3.18-0.59c3.17-0.65,5.13-2.54,5.39-5.8c0.26-3.19-1.9-5.77-5.34-6.73c-2.74-0.77-5.45-0.57-8.06,0.45
	c-3.67,1.44-5.24,5.57-3.35,8.95C401.85,295.06,404.76,295.68,408.36,295.82z M488.26,210.87c0.05-6.57-1.65-9.19-6.03-9.26
	c-3.89-0.07-6.44,2.98-6.59,7.88c-0.2,6.31,1.83,9.74,5.92,10.01C485.99,219.78,488.21,216.93,488.26,210.87z M559.27,295.45
	c0.54-0.04,1.41-0.07,2.27-0.2c3.58-0.52,6.19-3.22,6.2-6.36c0.01-3.15-2.22-5.71-5.72-6.4c-2.75-0.54-5.47-0.29-8.09,0.73
	c-2.14,0.84-3.39,2.35-3.66,4.73C549.72,292.86,552.73,295.51,559.27,295.45z"/>
<path class="st0" d="M602.89,519.54c-5.37,0-10.75,0.07-16.12-0.02c-6.3-0.1-8.78-1.88-10.85-7.77c-0.61-1.73-1.03-3.39-3.41-2.98
	c-2.83,0.49-6.53-1.73-8.19,2.41c-2.36,5.91-7.06,8.38-12.96,8.37c-8.32-0.02-16.74,1.24-24.92-1.43c-1.17-0.38-2.21,0.17-3.28,0.43
	c-9.17,2.25-18.31,2.04-27.42-0.32c-1.25-0.32-2.45-0.61-3.66-0.15c-7.79,2.91-15.82,1.64-23.74,1.18c-4.43-0.26-7.23-3.42-8.28-7.6
	c-0.64-2.53-1.86-3.23-4.19-2.96c-1.36,0.16-2.75,0.28-4.11,0.18c-2.09-0.16-3.06,0.78-3.75,2.69c-1.79,4.99-5.57,7.54-10.77,7.93
	c-6.61,0.5-13.23,0.11-19.85-0.05c-5.78-0.14-12.68-8.5-8.68-15.43c7.93-13.72,15.37-27.73,23.06-41.59
	c2.91-5.24,6.11-10.32,8.91-15.62c3.38-6.4,8.6-9.48,15.73-9.53c4-0.03,8,0.03,11.99-0.04c5.79-0.11,10.72,1.72,15.79,4.71
	c4.77,2.81,10.23,3.83,16.17,0.58c15.24-8.36,30.75-8.31,45.86,0.73c3.66,2.19,11.26,1.93,14.46-1.05c3.15-2.93,6.74-4.62,11.07-4.8
	c6.61-0.28,13.22-0.67,19.82,0.23c2.78,0.38,5.45,1.17,7.45,3.16c2.41,2.4,4.83,1.92,7.45,0.62c13.91-6.92,28.89-6.25,42.82-2.46
	c26.82,7.29,28.35,38.25,14.04,53.68c-6.95,7.49-15.59,11.51-25.6,12.68c-2.68,0.31-4.11,1.07-4.72,4.03
	c-1.35,6.52-5.82,10.03-12.49,10.21c-5.87,0.16-11.74,0.03-17.62,0.03C602.89,519.56,602.89,519.55,602.89,519.54z M538.8,505.96
	c3.2,0,5.72-0.26,8.17,0.05c5.43,0.71,9.42-0.57,11.38-6.27c0.59-1.7,1.72-3.67,4.26-3.65c5.49,0.04,10.99,0.02,16.48-0.03
	c1.66-0.02,2.4,0.75,2.87,2.3c0.74,2.43-0.3,5.93,2.3,7.1c2.2,0.98,5.13,0.34,7.74,0.41c1,0.02,2.01-0.08,2.99,0.03
	c2.98,0.32,4.04-0.59,3.22-3.79c-1.14-4.46-1.81-9.05-2.69-13.58c-2.09-10.77-4.24-21.53-6.24-32.33c-0.6-3.26-2.07-4.68-5.53-4.38
	c-3.34,0.29-6.74,0.09-10.11,0.04c-2.19-0.04-3.45,0.81-4.74,2.77c-4.4,6.66-8.18,13.68-12.22,20.54
	C550.83,485.15,545.06,495.19,538.8,505.96z M461.53,451.91c-5.81-1.94-9.07,1.81-12.14,7.55c-7.4,13.88-15.46,27.41-23.22,41.09
	c-0.84,1.48-2.72,3.06-1.99,4.58c0.81,1.68,3.16,0.49,4.81,0.76c6.72,1.09,11.98-0.52,14.28-7.7c0.53-1.67,1.96-2.1,3.59-2.1
	c5.37,0.01,10.74,0.02,16.12-0.04c1.94-0.02,2.83,0.79,3.33,2.7c1.91,7.3,1.98,7.28,9.57,7.21c1.25-0.01,2.51-0.08,3.75,0.01
	c2.85,0.21,3.32-1.03,2.76-3.63c-3.01-13.78-5.92-27.59-8.8-41.39C471.7,451.89,471.74,451.89,461.53,451.91z M521.69,450.88
	c-8.33,0.19-16.04,1.78-21.47,9.04c-5.38,7.17-5.94,20.55,7.89,24.15c3.14,0.82,6.27,1.67,9.37,2.59c1.6,0.48,3.11,1.23,3.14,3.23
	c0.03,1.98-1.5,2.76-3,3.42c-5.11,2.23-10.02,0.86-14.92-0.86c-2.44-0.86-4.4-4.18-6.76-3.18c-2.26,0.96-3.69,3.89-5.48,5.96
	c-0.08,0.09-0.14,0.21-0.22,0.3c-2.48,3.02-2.37,4.08,1.05,6.03c10.11,5.78,20.74,6.56,31.79,3.13c3.34-1.04,6.07-3.02,8.26-5.59
	c7-8.2,6.6-21-6.36-24.92c-3.31-1-6.64-1.96-10.01-2.75c-2.1-0.49-3.34-1.46-3.42-3.71c-0.08-2.37,1.11-3.88,3.29-4.33
	c3.33-0.69,7.14-1.37,9.93,0.34c5.63,3.46,9.08,1.45,12.15-3.27c0.13-0.2,0.36-0.34,0.55-0.5c2.52-2.17,2.03-3.93-0.65-5.55
	C532.16,451.57,527.02,450.91,521.69,450.88z M630.17,452.05c0-0.03,0-0.07,0-0.1c-2.87,0-5.77,0.25-8.61-0.07
	c-3.3-0.37-4.35,1.24-4.93,4.07c-2.96,14.43-6.05,28.83-9.03,43.25c-1.4,6.79-1.32,6.81,5.62,6.78c6.95-0.02,6.95-0.02,8.71-6.76
	c1.83-6.98,1.83-7.06,8.95-7.23c7.28-0.18,14.14-1.46,19.9-6.35c6.21-5.27,8.79-14.25,6.29-22.12c-2.1-6.61-8.26-10.9-16.79-11.44
	C636.92,451.87,633.54,452.05,630.17,452.05z"/>
<path class="st0" d="M617.33,360.05c3.28-38.91,4.61-77.88,5.84-116.84c0.05-1.62-0.09-3.27,0.11-4.87c0.34-2.69-0.65-4.2-3.1-5.59
	c-12.58-7.12-19.62-18.34-20.6-32.46c-1.76-25.42,2.63-49.77,15.76-72.05c4.1-6.96,9.1-13.18,16.18-17.36
	c9.51-5.62,19.28-3.7,27.2,3.4c12.38,11.11,18.44,25.77,22.85,41.29c3.7,13.04,5.19,26.41,4.67,39.93
	c-0.64,16.6-7.15,29.98-22.63,37.73c-2.27,1.14-2.2,2.66-2.15,4.54c0.6,21.61,1.18,43.22,1.8,64.83
	c0.69,24.23,1.41,48.46,2.11,72.69c0.15,5.12,0.49,10.25,0.36,15.36c-0.46,18.43-18.83,30.35-34.83,22.55
	c-8.74-4.26-13.26-11.65-13.5-21.3C617.13,381.29,617.33,370.67,617.33,360.05z M628.01,135.18c-0.41-0.07-0.82-0.14-1.22-0.22
	c-0.8,1.61-1.66,3.19-2.38,4.84c-7.35,17.02-10.38,34.86-10.16,53.32c0.19,15.54,6.69,24.78,21.28,29.81
	c1.8,0.62,2.44,1.39,2.33,3.12c-0.05,0.87,0,1.75-0.02,2.62c-1.2,50.58-2.97,101.14-5.07,151.69c-0.17,3.99-0.51,8.01,0.35,11.96
	c0.88,4.06,3.68,6.71,7.26,7.07c3.67,0.38,7.48-1.84,9.14-5.32c0.83-1.74,1.03-3.58,1.01-5.48c-0.13-9.12-0.19-18.24-0.39-27.36
	c-0.99-44.46-1.97-88.92-3.1-133.38c-0.09-3.57,1.07-5.24,4.47-5.93c11.5-2.36,19.36-13.83,19.84-25.26
	c0.68-16.25-1.45-32.16-6.73-47.58c-1.68-4.92-3.54-9.79-6.81-15.02c-0.19,3.22-0.44,5.56-0.44,7.9
	c0.04,10.87,0.17,21.74,0.23,32.61c0.04,6.5,0.12,13-0.02,19.49c-0.1,4.49-3.64,6.72-7.78,5.06c-3.01-1.21-3.12-3.84-3.12-6.57
	c0.01-21.24,0.02-42.48-0.04-63.72c-0.01-3.93-1.55-5.75-4.48-5.57c-3.47,0.21-3.68,2.78-3.68,5.42c0.02,15.87,0.05,31.73,0.07,47.6
	c0.01,6,0.11,12-0.05,17.99c-0.12,4.37-3.32,6.41-7.47,4.98c-3.24-1.11-3.06-4.01-3.06-6.56c-0.05-13.74,0.03-27.49,0.05-41.23
	C628.02,146.04,628.01,140.61,628.01,135.18z"/>
<path class="st0" d="M258.09,519.56c-10.99,0-21.98,0.13-32.97-0.05c-9.09-0.15-13.05-5.81-11.08-14.71
	c3.84-17.4,7.61-34.81,11.11-52.28c2.02-10.1,6.59-15.4,17.72-15.31c13.22,0.11,26.45-0.63,39.67,0.4c3.79,0.3,6.44,2.28,9.06,4.54
	c2.51,2.16,7.03,2.48,9.39,0.2c3.53-3.42,7.74-5.14,12.5-5.09c8.28,0.09,16.77-1.51,24.7,2.36c1.56,0.76,2.97-0.04,4.3-0.61
	c3.29-1.39,6.75-1.88,10.25-1.9c13.61-0.08,27.23-0.14,40.84-0.01c6.45,0.06,12.39,1.55,16,7.75c7.14,12.27-2.66,31-16.75,31.49
	c-3.49,0.12-4.33,1.56-4.87,4.42c-1.69,8.95-3.53,17.86-5.33,26.79c-1.7,8.43-5.64,11.91-14.09,11.99
	c-13.24,0.12-26.48,0.13-39.72,0.02c-7.86-0.07-10.15-1.75-12.6-9.03c-0.53-1.57-1.25-1.92-2.63-1.88c-1.5,0.05-3,0.12-4.49,0.04
	c-2.53-0.15-3.98,0.74-5.02,3.29c-2.1,5.17-6.45,7.49-11.89,7.53C280.82,519.62,269.45,519.56,258.09,519.56z M279.19,505.94
	c2.93,0,5.36-0.34,7.66,0.07c6.06,1.06,10.03-1.03,11.96-6.95c0.8-2.47,2.64-3.2,5.2-3.07c3.86,0.19,7.74,0.04,11.61,0.07
	c6.81,0.04,6.86,0.04,8.56,6.75c0.55,2.17,1.36,3.37,3.93,3.15c2.97-0.26,6-0.18,8.98,0.03c2.46,0.17,3.34-0.51,2.79-3.07
	c-3.44-16.08-6.84-32.17-10.16-48.28c-0.43-2.09-1.25-2.94-3.44-2.87c-4.24,0.14-8.49,0.12-12.74-0.01
	c-2.14-0.07-3.44,0.73-4.5,2.56c-4.27,7.33-8.77,14.54-12.96,21.91C290.54,485.95,284.32,495.3,279.19,505.94z M250.16,473.01
	c0.36-2.07,0.73-3.53,0.84-5.01c0.23-3.28,1.87-4.29,5.1-4.08c4.48,0.29,8.99,0.04,13.48,0.07c8.87,0.05,8.87,0.06,10.68-8.69
	c0.05-0.24,0.12-0.49,0.18-0.73c0.51-1.84,0.08-2.74-2.09-2.73c-12.11,0.06-24.22,0.03-36.33-0.03c-1.82-0.01-2.46,0.64-2.86,2.5
	c-3.47,16.21-7.02,32.41-10.73,48.56c-0.64,2.77,0.23,3.1,2.64,3.06c9.86-0.14,19.73-0.16,29.59-0.14c9.74,0.02,9.64,0.04,11.26-9.6
	c0.37-2.2-0.19-2.5-2.1-2.51c-7.11-0.04-14.23-0.19-21.34-0.34c-0.96-0.02-2.16,0.38-2.84-0.51c-1.42-1.83,1.93-8.34,4.35-8.39
	c4.74-0.1,9.49-0.05,14.23-0.04c8.65,0.03,8.53,0.01,10.09-8.46c0.47-2.57-0.26-3-2.54-2.97
	C264.68,473.07,257.58,473.01,250.16,473.01z M373.23,451.83c0-0.01,0-0.02,0-0.04c-4.74,0-9.48,0-14.22,0c-0.5,0-1,0-1.5,0.01
	c-9.49,0.05-9.4,0.07-11.39,9.36c-0.51,2.38,0.2,2.79,2.3,2.74c3.87-0.08,7.74,0.14,11.6,0.01c2.29-0.07,3.05,0.41,2.51,2.91
	c-2.32,10.59-4.44,21.21-6.65,31.82c-1.5,7.2-1.52,7.19,5.85,7.27c7.62,0.08,7.55,0.06,8.99-7.46c1.97-10.26,4.11-20.49,6.07-30.76
	c0.53-2.75,1.74-3.97,4.7-3.76c3.6,0.25,7.23-0.03,10.85,0.08c1.95,0.06,2.84-0.59,3.31-2.58c0.53-2.22-0.17-4.8,0.83-6.58
	c1.97-3.53-0.3-3.01-2.28-3.02C387.21,451.81,380.22,451.83,373.23,451.83z"/>
<path class="st1" d="M217.74,279.1c5.86,0.03,11.73,0.09,17.59,0.09c43.84,0.02,87.68,0.04,131.52,0.05c6.01,0,6.03,0.01,5.98,5.83
	c-0.05,4.75,0.11,9.47,0.73,14.2c0.66,4.96,0.53,5-4.35,5c-43.47,0-86.93-0.01-130.4-0.03c-7.74,0-15.48-0.07-23.21-0.11
	c-0.26-0.26-0.5-0.54-0.78-0.78C205.86,295.71,206.35,284.93,217.74,279.1z"/>
<path class="st1" d="M273.12,323.05c33.49,0,66.97,0.05,100.46-0.09c3.78-0.02,5.84,0.88,7.05,4.71c1.96,6.21,5.29,11.84,8.67,17.4
	c0.55,0.9,1.9,1.75,1.18,2.9c-0.64,1.03-2.06,0.55-3.14,0.55c-27.12,0.02-54.23,0.02-81.35,0.02c-1.62,0-3.25-0.09-4.8,0.53
	c-6.66-1.18-13.41-0.82-20.12-0.83c-9.78-0.02-14.48-7.75-13.72-15.37C267.76,328.7,270.88,326.13,273.12,323.05z"/>
<path class="st1" d="M336.76,368.41c19.1-0.03,38.21-0.06,57.31-0.09c1.25,0,2.54,0.2,3.74-0.02c7.36-1.4,12.5,2.06,17.95,6.64
	c10.61,8.94,22.8,15.38,36.72,19.13c-8.39,0-16.43,0-24.47,0c-27.73,0-55.46,0-83.2-0.03c-3.49,0-6.98-0.16-10.47-0.25
	c-0.95-0.98-2.01-1.88-2.84-2.95C325.11,382.54,326.92,374.87,336.76,368.41z"/>
<linearGradient id="SVGID_1_" gradientUnits="userSpaceOnUse" x1="506.4592" y1="150.794" x2="572.4294" y2="150.794">
	<stop  offset="0" style="stop-color:#47C1BC"/>
	<stop  offset="1" style="stop-color:#47C1BC"/>
</linearGradient>
<path class="st2" d="M572.41,157.83c0.09,6.99-1.52,12.94-4.14,18.69c-1.01,2.21-1.28,2.93-3.96,0.9
	c-15.77-11.9-32.32-22.4-52.08-26.64c-6.9-1.48-6.44-0.93-4.55-7.29c3.61-12.13,12.69-17.8,24.16-19.92
	c20.56-3.81,35.61,10.95,39.38,25.26C572.04,151.99,572.54,155.18,572.41,157.83z"/>
<linearGradient id="SVGID_00000138541417450074120650000004995641636500508037_" gradientUnits="userSpaceOnUse" x1="390.9937" y1="148.6383" x2="456.5292" y2="148.6383">
	<stop  offset="0" style="stop-color:#47C1BC"/>
	<stop  offset="1" style="stop-color:#47C1BC"/>
</linearGradient>
<path style="fill:url(#SVGID_00000138541417450074120650000004995641636500508037_);" d="M421.4,123.39
	c18.24-0.29,31.37,10.31,34.81,23.65c0.53,2.07,0.73,3.04-2.11,3.63c-16.2,3.36-30.99,10.33-45.21,18.59
	c-1.26,0.73-2.3,1.85-3.38,2.86c-3.26,3.05-7.12,1.24-10.72,1.26c-1.05,0.01-1.31-1.41-1.59-2.33c-4.19-13.56-2.69-26.04,6.97-37.01
	C406.44,126.9,414.43,123.66,421.4,123.39z"/>
<linearGradient id="SVGID_00000114060919595263018090000001321575400139346308_" gradientUnits="userSpaceOnUse" x1="437.6131" y1="191.9392" x2="577.506" y2="191.9392">
	<stop  offset="0" style="stop-color:#47C1BC"/>
	<stop  offset="1" style="stop-color:#47C1BC"/>
</linearGradient>
<path style="fill:url(#SVGID_00000114060919595263018090000001321575400139346308_);" d="M437.61,174.99
	c8.91-4.6,17.61-7.41,26.7-8.68c33.47-4.68,63.67,3.04,90.01,24.53c8.45,6.9,15.63,15.06,21.7,24.14c0.65,0.97,1.96,2.02,1.3,3.26
	c-0.58,1.1-2.05,0.3-3.1,0.49c-4.37,0.79-6.88-1.44-9.59-4.72c-17.2-20.81-39.18-33.52-65.88-38c-9.05-1.52-18.11-1.34-27.21-0.75
	c-10.48,0.69-20.97,0.23-31.45,0.04C439.54,175.3,438.97,175.17,437.61,174.99z"/>
<path class="st5" d="M495.85,272c14.76-8.47,30.14-15.73,45.43-23.18c6.69-3.26,13.43-6.46,20.06-9.84
	c1.62-0.83,2.94-2.26,4.39-3.42c4.98-2.25,9.89-4.72,15.34-5.62c3.85-0.63,4.15-0.35,2.61,3.16c-3.26,7.38-6.75,14.67-10.13,21.97
	c-2.17,3.41-4.36,6.84-6.74,10.58c-1.56-2.77,0.23-5.18-0.77-7.37c1.04-2.94,2.15-5.85,3.1-8.82c0.45-1.41,0.92-3.5-1.4-3.32
	c-5.17,0.4-10.51-0.99-15.5,1.49c-16.85,8.4-33.78,16.63-50.52,25.24C499.02,274.26,497.54,274.11,495.85,272z"/>
<linearGradient id="SVGID_00000054238364539795586390000006900806907252887468_" gradientUnits="userSpaceOnUse" x1="482.347" y1="382.5149" x2="570.8278" y2="382.5149">
	<stop  offset="0" style="stop-color:#47C1BC"/>
	<stop  offset="1" style="stop-color:#47C1BC"/>
</linearGradient>
<path style="fill:url(#SVGID_00000054238364539795586390000006900806907252887468_);" d="M482.35,403.96
	c3.42-2.21,6.92-1.88,10.12-2.39c27.68-4.34,51.97-15.34,71.47-35.93c1.46-1.54,2.98-3.02,4.51-4.49c0.53-0.51,1.16-0.91,2.38-1.85
	c-0.5,2.87-1.74,4.57-3.04,6.25c-12.67,16.42-29.28,27.31-48.54,34.37c-9.63,3.53-19.6,5.68-29.93,5.79
	C487.05,405.74,484.85,405.52,482.35,403.96z"/>
<linearGradient id="SVGID_00000090278423209301375100000007999738827472502952_" gradientUnits="userSpaceOnUse" x1="586.1073" y1="278.0251" x2="598.0835" y2="278.0251">
	<stop  offset="0" style="stop-color:#47C1BC"/>
	<stop  offset="1" style="stop-color:#47C1BC"/>
</linearGradient>
<path style="fill:url(#SVGID_00000090278423209301375100000007999738827472502952_);" d="M593.51,313.75
	c0.17-12.6,0.64-24.22-0.99-35.77c-0.94-6.67-1.75-13.43-4.68-19.57c-2.76-5.8-2.18-11.07,1.41-16.12
	C598.45,251.44,601.43,295.15,593.51,313.75z"/>
<path class="st0" d="M495.85,272c1.7,2.11,3.17,2.26,5.88,0.87c16.74-8.61,33.67-16.84,50.52-25.24c4.99-2.49,10.33-1.1,15.5-1.49
	c2.32-0.18,1.85,1.92,1.4,3.32c-0.95,2.97-2.05,5.88-3.1,8.82c-19.64,10.11-39.28,20.24-58.93,30.33c-2.55,1.31-4.16,2.92-4.89,6.02
	c-1.71,7.28-9.56,13.36-17.26,14.1c-8.26,0.79-15.93-3.06-19.59-9.83c-3.72-6.9-3.37-15.35,1.68-22.26c1.36-1.86,3.33-3.65,5.42-4.5
	c4.8-1.96,5.36-6.03,6.1-10.21c1.53-8.68,3.07-17.35,4.71-26.01c0.29-1.55,0.76-3.13,1.92-4.4c6.29-6.91,12.54-13.85,20.15-20.16
	c1.07,4.15-0.22,7.84-0.85,11.46c-2.75,15.79-5.71,31.55-8.58,47.32C495.81,270.74,495.87,271.38,495.85,272z"/>
<path class="st0" d="M488.37,364.33c-0.06,0.72-0.05,1.84-0.26,2.93c-0.75,3.96-3.37,6.34-6.72,6.2c-3.32-0.14-5.55-2.79-5.81-6.99
	c-0.09-1.36-0.04-2.73,0.01-4.09c0.15-4.02,2.47-6.82,5.75-6.98c3.78-0.18,6.61,2.53,6.93,6.67
	C488.31,362.69,488.32,363.31,488.37,364.33z"/>
<path class="st0" d="M408.36,295.82c-3.6-0.14-6.51-0.76-8.18-3.73c-1.89-3.38-0.33-7.51,3.35-8.95c2.62-1.02,5.32-1.22,8.06-0.45
	c3.44,0.96,5.6,3.55,5.34,6.73c-0.27,3.27-2.22,5.15-5.39,5.8C410.33,295.48,409.11,295.68,408.36,295.82z"/>
<path class="st0" d="M488.26,210.87c-0.05,6.06-2.27,8.91-6.71,8.63c-4.09-0.27-6.12-3.7-5.92-10.01c0.16-4.9,2.7-7.95,6.59-7.88
	C486.61,201.68,488.32,204.29,488.26,210.87z"/>
<path class="st0" d="M559.27,295.45c-6.54,0.06-9.55-2.59-8.99-7.49c0.27-2.38,1.51-3.9,3.66-4.73c2.62-1.02,5.34-1.27,8.09-0.73
	c3.49,0.69,5.72,3.25,5.72,6.4c-0.01,3.14-2.62,5.84-6.2,6.36C560.68,295.38,559.8,295.4,559.27,295.45z"/>
<path class="st1" d="M538.8,505.96c6.26-10.77,12.03-20.81,17.91-30.79c4.04-6.87,7.82-13.88,12.22-20.54
	c1.29-1.96,2.56-2.81,4.74-2.77c3.37,0.06,6.76,0.26,10.11-0.04c3.46-0.3,4.92,1.12,5.53,4.38c1.99,10.79,4.15,21.55,6.24,32.33
	c0.88,4.53,1.55,9.11,2.69,13.58c0.82,3.2-0.24,4.11-3.22,3.79c-0.99-0.11-2-0.01-2.99-0.03c-2.61-0.06-5.54,0.58-7.74-0.41
	c-2.6-1.16-1.56-4.67-2.3-7.1c-0.47-1.55-1.22-2.31-2.87-2.3c-5.49,0.05-10.99,0.07-16.48,0.03c-2.54-0.02-3.67,1.95-4.26,3.65
	c-1.96,5.7-5.96,6.98-11.38,6.27C544.52,505.69,542,505.96,538.8,505.96z M576.42,468.99c-0.32-0.03-0.65-0.06-0.97-0.09
	c-1.43,2.42-2.9,4.83-4.3,7.28c-1.39,2.44-4.47,5.57-3.13,7.4c1.43,1.96,5.58,0.85,8.55,0.97c0.25,0.01,0.5-0.01,0.75-0.05
	c1.2-0.18,1.82-0.94,1.61-2.09C578.14,477.92,577.26,473.46,576.42,468.99z"/>
<path class="st1" d="M461.53,451.91c10.21-0.03,10.17-0.02,12.06,9.04c2.88,13.81,5.79,27.61,8.8,41.39
	c0.57,2.6,0.09,3.84-2.76,3.63c-1.24-0.09-2.5-0.02-3.75-0.01c-7.59,0.07-7.65,0.09-9.57-7.21c-0.5-1.91-1.39-2.72-3.33-2.7
	c-5.37,0.06-10.74,0.05-16.12,0.04c-1.63,0-3.06,0.42-3.59,2.1c-2.29,7.19-7.56,8.79-14.28,7.7c-1.65-0.27-3.99,0.92-4.81-0.76
	c-0.74-1.52,1.14-3.1,1.99-4.58c7.76-13.69,15.82-27.22,23.22-41.09C452.46,453.72,455.72,449.97,461.53,451.91z M459.6,467.99
	c-2.83,5.36-5.19,9.82-7.54,14.29c-0.29,0.55-0.45,1.16,0.11,1.68c0.53,0.51,9.86,0.66,10.3,0.09c0.27-0.35,0.49-0.91,0.43-1.34
	C462.26,478.08,461.63,473.44,459.6,467.99z"/>
<path class="st1" d="M521.69,450.88c5.33,0.03,10.47,0.69,15.14,3.52c2.67,1.62,3.17,3.38,0.65,5.55c-0.19,0.16-0.42,0.3-0.55,0.5
	c-3.07,4.72-6.52,6.73-12.15,3.27c-2.79-1.71-6.61-1.03-9.93-0.34c-2.18,0.45-3.37,1.96-3.29,4.33c0.08,2.26,1.31,3.23,3.42,3.71
	c3.37,0.78,6.7,1.74,10.01,2.75c12.95,3.92,13.36,16.72,6.36,24.92c-2.2,2.57-4.92,4.56-8.26,5.59
	c-11.05,3.43-21.68,2.65-31.79-3.13c-3.42-1.96-3.53-3.01-1.05-6.03c0.08-0.1,0.14-0.21,0.22-0.3c1.79-2.07,3.22-5.01,5.48-5.96
	c2.36-1,4.32,2.33,6.76,3.18c4.9,1.72,9.81,3.09,14.92,0.86c1.5-0.66,3.03-1.43,3-3.42c-0.03-2-1.54-2.75-3.14-3.23
	c-3.11-0.92-6.24-1.78-9.37-2.59c-13.83-3.6-13.26-16.98-7.89-24.15C505.66,452.66,513.36,451.07,521.69,450.88z"/>
<path class="st1" d="M630.17,452.05c3.37,0,6.75-0.18,10.11,0.03c8.53,0.54,14.7,4.83,16.79,11.44c2.5,7.88-0.07,16.85-6.29,22.12
	c-5.76,4.89-12.63,6.17-19.9,6.35c-7.12,0.17-7.12,0.25-8.95,7.23c-1.76,6.73-1.76,6.73-8.71,6.76c-6.94,0.02-7.02,0.01-5.62-6.78
	c2.97-14.43,6.07-28.82,9.03-43.25c0.58-2.84,1.63-4.44,4.93-4.07c2.84,0.32,5.74,0.07,8.61,0.07
	C630.17,451.98,630.17,452.01,630.17,452.05z M631.5,480.09c1.73-0.2,3.5-0.24,5.19-0.63c4.29-1.01,7.19-4.91,6.88-9.01
	c-0.33-4.33-2.75-6.18-8.42-6.48c-5.5-0.28-5.5-0.28-6.89,6.06c-0.4,1.82-0.92,3.63-1.18,5.48
	C626.35,480.5,626.45,480.55,631.5,480.09z"/>
<path class="st1" d="M628.01,135.18c0,5.43,0.01,10.86,0,16.29c-0.03,13.74-0.1,27.49-0.05,41.23c0.01,2.55-0.18,5.45,3.06,6.56
	c4.15,1.42,7.35-0.61,7.47-4.98c0.16-5.99,0.06-11.99,0.05-17.99c-0.02-15.87-0.05-31.73-0.07-47.6c0-2.63,0.21-5.2,3.68-5.42
	c2.93-0.18,4.47,1.64,4.48,5.57c0.06,21.24,0.05,42.48,0.04,63.72c0,2.73,0.11,5.36,3.12,6.57c4.14,1.66,7.68-0.57,7.78-5.06
	c0.14-6.49,0.06-12.99,0.02-19.49c-0.06-10.87-0.19-21.74-0.23-32.61c-0.01-2.34,0.25-4.67,0.44-7.9c3.27,5.23,5.13,10.1,6.81,15.02
	c5.28,15.42,7.41,31.33,6.73,47.58c-0.48,11.43-8.33,22.89-19.84,25.26c-3.4,0.7-4.56,2.37-4.47,5.93
	c1.13,44.46,2.11,88.92,3.1,133.38c0.2,9.12,0.26,18.24,0.39,27.36c0.03,1.9-0.17,3.74-1.01,5.48c-1.66,3.48-5.47,5.69-9.14,5.32
	c-3.58-0.37-6.37-3.02-7.26-7.07c-0.86-3.95-0.52-7.97-0.35-11.96c2.1-50.55,3.87-101.11,5.07-151.69c0.02-0.87-0.03-1.75,0.02-2.62
	c0.1-1.72-0.53-2.5-2.33-3.12c-14.59-5.03-21.09-14.26-21.28-29.81c-0.22-18.46,2.81-36.31,10.16-53.32
	c0.71-1.65,1.58-3.23,2.38-4.84C627.19,135.03,627.6,135.11,628.01,135.18z"/>
<path class="st8" d="M279.19,505.94c5.13-10.64,11.36-19.99,16.9-29.72c4.2-7.37,8.69-14.58,12.96-21.91
	c1.07-1.83,2.37-2.63,4.5-2.56c4.24,0.13,8.49,0.15,12.74,0.01c2.19-0.07,3.01,0.78,3.44,2.87c3.31,16.11,6.72,32.2,10.16,48.28
	c0.55,2.56-0.33,3.24-2.79,3.07c-2.98-0.2-6.01-0.29-8.98-0.03c-2.56,0.22-3.38-0.98-3.93-3.15c-1.7-6.71-1.75-6.71-8.56-6.75
	c-3.87-0.02-7.75,0.13-11.61-0.07c-2.56-0.13-4.4,0.61-5.2,3.07c-1.93,5.92-5.89,8.01-11.96,6.95
	C284.55,505.6,282.12,505.94,279.19,505.94z M307.57,484.34c3.97,0,7.3-0.05,10.64,0.02c1.72,0.04,2.16-0.69,1.86-2.27
	c-0.89-4.79-1.51-9.63-3.18-14.82C313.72,473.07,310.82,478.38,307.57,484.34z"/>
<path class="st8" d="M250.16,473.01c7.42,0,14.53,0.06,21.63-0.03c2.28-0.03,3.01,0.4,2.54,2.97c-1.56,8.47-1.43,8.48-10.09,8.46
	c-4.74-0.01-9.49-0.06-14.23,0.04c-2.42,0.05-5.77,6.56-4.35,8.39c0.69,0.88,1.88,0.48,2.84,0.51c7.11,0.16,14.23,0.3,21.34,0.34
	c1.91,0.01,2.47,0.32,2.1,2.51c-1.63,9.64-1.53,9.62-11.26,9.6c-9.86-0.02-19.73,0-29.59,0.14c-2.42,0.04-3.28-0.29-2.64-3.06
	c3.71-16.16,7.27-32.35,10.73-48.56c0.4-1.86,1.03-2.51,2.86-2.5c12.11,0.05,24.22,0.08,36.33,0.03c2.17-0.01,2.6,0.9,2.09,2.73
	c-0.07,0.24-0.13,0.48-0.18,0.73c-1.81,8.75-1.81,8.74-10.68,8.69c-4.49-0.02-9,0.22-13.48-0.07c-3.24-0.21-4.87,0.8-5.1,4.08
	C250.89,469.48,250.51,470.94,250.16,473.01z"/>
<path class="st8" d="M373.23,451.83c6.99,0,13.97-0.01,20.96,0.01c1.98,0.01,4.25-0.51,2.28,3.02c-0.99,1.78-0.3,4.36-0.83,6.58
	c-0.47,1.99-1.36,2.64-3.31,2.58c-3.61-0.11-7.25,0.17-10.85-0.08c-2.95-0.2-4.17,1.01-4.7,3.76c-1.96,10.26-4.09,20.49-6.07,30.76
	c-1.45,7.52-1.38,7.54-8.99,7.46c-7.37-0.07-7.35-0.07-5.85-7.27c2.22-10.61,4.33-21.24,6.65-31.82c0.55-2.5-0.22-2.98-2.51-2.91
	c-3.86,0.13-7.74-0.09-11.6-0.01c-2.1,0.04-2.81-0.37-2.3-2.74c1.99-9.3,1.9-9.32,11.39-9.36c0.5,0,1-0.01,1.5-0.01
	c4.74,0,9.48,0,14.22,0C373.23,451.8,373.23,451.81,373.23,451.83z"/>
<path class="st0" d="M576.42,468.99c0.84,4.47,1.72,8.93,2.51,13.41c0.2,1.14-0.41,1.91-1.61,2.09c-0.25,0.04-0.5,0.06-0.75,0.05
	c-2.97-0.12-7.12,0.99-8.55-0.97c-1.34-1.84,1.74-4.96,3.13-7.4c1.39-2.45,2.86-4.85,4.3-7.28
	C575.77,468.93,576.09,468.96,576.42,468.99z"/>
<path class="st0" d="M459.6,467.99c2.04,5.45,2.66,10.1,3.3,14.73c0.06,0.42-0.15,0.98-0.43,1.34c-0.44,0.56-9.76,0.41-10.3-0.09
	c-0.56-0.53-0.4-1.13-0.11-1.68C454.4,477.8,456.77,473.35,459.6,467.99z"/>
<path class="st0" d="M631.5,480.09c-5.05,0.46-5.14,0.41-4.43-4.58c0.27-1.84,0.78-3.65,1.18-5.48c1.39-6.34,1.39-6.34,6.89-6.06
	c5.68,0.29,8.09,2.15,8.42,6.48c0.31,4.09-2.59,7.99-6.88,9.01C635,479.85,633.23,479.89,631.5,480.09z"/>
<path class="st0" d="M307.57,484.34c3.25-5.96,6.15-11.26,9.32-17.07c1.67,5.19,2.29,10.04,3.18,14.82
	c0.29,1.58-0.15,2.31-1.86,2.27C314.88,484.29,311.54,484.34,307.57,484.34z"/>
<g>
</g>
<g>
</g>
<g>
</g>
<g>
</g>
<g>
</g>
<g>
</g>
</svg>
